<?xml version="1.0" standalone="no"?>
<!DOCTYPE svg PUBLIC "-//W3C//DTD SVG 20010904//EN"
 "http://www.w3.org/TR/2001/REC-SVG-20010904/DTD/svg10.dtd">
<svg version="1.0" xmlns="http://www.w3.org/2000/svg"
 width="1914.000000pt" height="949.000000pt" viewBox="0 0 1914.000000 949.000000"
 preserveAspectRatio="xMidYMid meet">

<g transform="translate(0.000000,949.000000) scale(0.100000,-0.100000)"
fill="#000000" stroke="none">
<path d="M0 9435 l0 -55 320 0 320 0 0 55 0 55 -320 0 -320 0 0 -55z"/>
<path d="M650 9435 l0 -55 9245 0 9245 0 0 55 0 55 -2161 0 -2161 0 -20 -25
-19 -25 -1484 0 -1484 0 -19 25 -20 25 -5561 0 -5561 0 0 -55z"/>
<path d="M17526 9224 c-19 -19 -22 -114 -4 -132 7 -7 28 -12 48 -13 l35 -1
-38 -12 -39 -12 58 -18 c56 -18 58 -18 71 0 7 10 13 24 13 31 0 7 10 13 23 13
35 0 47 19 47 76 0 75 -12 84 -115 84 -63 0 -88 -4 -99 -16z m93 -11 c9 -17
10 -17 16 0 4 9 16 17 26 17 18 0 19 -2 4 -30 -14 -27 -14 -33 0 -60 15 -28
14 -30 -4 -30 -10 0 -22 8 -26 18 -6 16 -7 16 -19 0 -7 -10 -21 -18 -30 -18
-20 0 -20 5 0 35 14 21 14 26 -1 54 -15 30 -15 31 4 31 11 0 24 -8 30 -17z"/>
<path d="M3700 9160 c-13 -13 -20 -33 -20 -59 0 -26 -5 -41 -15 -45 -13 -5
-15 -20 -13 -73 l3 -68 85 -3 c98 -3 110 5 110 75 0 30 -6 49 -20 63 -12 12
-20 33 -20 55 0 42 -29 75 -65 75 -14 0 -34 -9 -45 -20z m71 -10 c14 -8 19
-21 19 -50 l0 -40 -45 0 -45 0 0 40 c0 51 29 72 71 50z m54 -165 l0 -50 -80 0
-80 0 -3 39 c-5 64 -2 67 85 64 l78 -3 0 -50z"/>
<path d="M16884 9163 c-50 -25 -55 -41 -31 -114 11 -36 23 -57 26 -49 3 8 12
35 21 60 12 37 19 45 40 45 22 0 27 -8 43 -58 11 -32 20 -57 22 -55 2 2 12 30
23 62 23 68 17 86 -34 111 -40 19 -70 18 -110 -2z"/>
<path d="M3217 9146 c-58 -35 -59 -37 -46 -97 13 -61 70 -129 109 -129 38 0
96 68 109 128 6 30 9 57 6 62 -10 16 -98 60 -119 59 -11 0 -38 -11 -59 -23z
m113 -16 c21 -11 41 -23 44 -28 2 -4 0 -28 -5 -53 -11 -47 -61 -109 -89 -109
-28 0 -78 62 -89 109 -12 53 -10 55 37 81 47 24 54 24 102 0z"/>
<path d="M13983 9158 c-6 -7 -14 -23 -17 -35 -6 -17 -18 -25 -46 -29 -50 -8
-56 -25 -20 -59 25 -24 27 -30 18 -57 -8 -23 -7 -33 4 -44 13 -13 19 -13 46 3
31 17 33 17 64 0 27 -16 33 -16 46 -3 11 11 12 21 4 44 -9 27 -7 33 18 57 35
34 30 51 -19 59 -30 4 -40 12 -52 38 -16 36 -31 45 -46 26z m36 -48 c8 -26 15
-30 45 -30 42 0 46 -14 11 -42 -17 -13 -24 -26 -20 -39 3 -10 8 -29 11 -41 l6
-21 -36 22 c-34 22 -38 22 -61 7 -37 -24 -45 -20 -34 17 9 29 7 34 -21 58 -35
29 -31 39 17 39 29 0 36 5 44 30 6 17 15 30 19 30 4 0 13 -13 19 -30z"/>
<path d="M13444 9147 c-2 -7 -3 -58 -2 -113 l3 -99 85 -3 c105 -4 110 1 110
111 0 114 -3 117 -106 117 -61 0 -86 -4 -90 -13z m171 -102 l0 -90 -80 0 -80
0 -3 79 c-2 44 -1 85 2 93 4 11 24 13 83 11 l78 -3 0 -90z"/>
<path d="M13490 9100 c0 -5 20 -10 45 -10 25 0 45 5 45 10 0 6 -20 10 -45 10
-25 0 -45 -4 -45 -10z"/>
<path d="M13490 9050 c0 -5 20 -10 45 -10 25 0 45 5 45 10 0 6 -20 10 -45 10
-25 0 -45 -4 -45 -10z"/>
<path d="M13490 9000 c0 -5 14 -10 30 -10 17 0 30 5 30 10 0 6 -13 10 -30 10
-16 0 -30 -4 -30 -10z"/>
<path d="M4073 9030 c0 -47 2 -66 4 -43 2 23 11 47 19 53 22 19 42 -4 47 -53
3 -40 4 -39 5 10 2 44 -1 53 -18 58 -12 4 -27 1 -35 -5 -11 -9 -14 -4 -18 27
-2 21 -4 0 -4 -47z"/>
<path d="M4820 9081 c0 -25 -3 -28 -27 -23 -31 6 -53 -18 -53 -59 0 -35 17
-47 63 -46 l37 1 0 78 c0 45 -4 78 -10 78 -5 0 -10 -13 -10 -29z m0 -71 c0
-25 -27 -51 -45 -44 -18 7 -20 55 -3 72 15 15 48 -3 48 -28z"/>
<path d="M4870 9100 c0 -5 5 -10 10 -10 6 0 10 5 10 10 0 6 -4 10 -10 10 -5 0
-10 -4 -10 -10z"/>
<path d="M4920 9030 c0 -47 4 -80 10 -80 6 0 10 33 10 80 0 47 -4 80 -10 80
-6 0 -10 -33 -10 -80z"/>
<path d="M5063 9030 c0 -66 1 -75 7 -42 12 75 60 76 60 1 0 -22 5 -39 10 -39
13 0 13 51 0 86 -9 23 -15 26 -40 21 -26 -6 -29 -4 -33 26 -2 18 -4 -6 -4 -53z"/>
<path d="M5362 9035 l-2 -80 32 -2 c41 -3 58 12 58 52 0 40 -21 59 -54 51 -22
-5 -25 -2 -29 26 -2 18 -5 -3 -5 -47z m73 -15 c7 -22 -2 -47 -20 -54 -17 -6
-45 19 -45 39 0 20 29 45 45 39 8 -3 17 -14 20 -24z"/>
<path d="M5650 9100 c0 -5 5 -10 10 -10 6 0 10 5 10 10 0 6 -4 10 -10 10 -5 0
-10 -4 -10 -10z"/>
<path d="M5770 9030 c0 -47 4 -80 10 -80 6 0 10 17 10 38 0 41 15 63 36 55 9
-3 14 -21 14 -49 0 -24 5 -44 10 -44 6 0 10 20 10 44 0 48 -18 71 -50 63 -17
-4 -20 0 -20 24 0 16 -4 29 -10 29 -6 0 -10 -33 -10 -80z"/>
<path d="M6012 9035 l-2 -80 32 -2 c41 -3 58 12 58 52 0 40 -21 59 -54 51 -22
-5 -25 -2 -29 26 -2 18 -5 -3 -5 -47z m73 -15 c7 -22 -2 -47 -20 -54 -17 -6
-45 19 -45 39 0 20 29 45 45 39 8 -3 17 -14 20 -24z"/>
<path d="M6180 9100 c0 -5 5 -10 10 -10 6 0 10 5 10 10 0 6 -4 10 -10 10 -5 0
-10 -4 -10 -10z"/>
<path d="M6818 9083 c-14 -31 -12 -133 3 -133 5 0 9 22 9 49 0 30 5 51 13 54
10 4 10 6 0 6 -19 1 -16 28 5 40 16 10 16 10 0 11 -10 0 -23 -12 -30 -27z"/>
<path d="M7003 9030 c0 -47 2 -66 4 -42 2 23 2 61 0 85 -2 23 -4 4 -4 -43z"/>
<path d="M4600 9020 c-18 -45 -31 -83 -28 -85 2 -3 19 31 38 75 18 45 31 83
28 85 -2 3 -19 -31 -38 -75z"/>
<path d="M4680 9020 c-18 -45 -31 -83 -28 -85 2 -3 19 31 38 75 18 45 31 83
28 85 -2 3 -19 -31 -38 -75z"/>
<path d="M6400 9098 c0 -4 -16 -43 -35 -87 -19 -45 -31 -81 -27 -81 10 0 74
161 68 168 -4 3 -6 3 -6 0z"/>
<path d="M6430 9025 c0 -43 4 -75 10 -75 6 0 10 14 10 30 0 25 4 30 23 30 29
0 47 18 47 45 0 30 -19 45 -57 45 l-33 0 0 -75z m64 49 c9 -8 16 -19 16 -23 0
-13 -24 -31 -42 -31 -14 0 -18 8 -18 35 0 39 17 46 44 19z"/>
<path d="M7254 9064 c-9 -21 -24 -59 -35 -83 -11 -24 -17 -46 -14 -49 2 -3 12
12 21 34 9 21 24 59 35 83 11 24 17 46 14 49 -2 3 -12 -12 -21 -34z"/>
<path d="M4191 9078 c0 -10 -7 -18 -13 -18 -10 0 -10 -2 -1 -8 6 -4 13 -27 15
-52 2 -36 7 -45 23 -48 18 -2 18 -2 3 8 -12 7 -18 23 -18 45 0 22 6 38 18 44
15 9 15 10 0 11 -9 0 -19 8 -21 18 -4 16 -5 16 -6 0z"/>
<path d="M4258 9070 c-10 -11 -13 -20 -8 -20 6 0 10 -15 10 -34 0 -46 9 -66
28 -66 12 0 13 3 4 12 -16 16 -16 88 1 88 8 0 9 3 1 8 -6 4 -13 13 -15 20 -3
9 -9 6 -21 -8z"/>
<path d="M5705 9080 c-11 -17 -7 -87 6 -112 10 -19 39 -25 39 -8 0 6 -6 9 -12
8 -21 -5 -23 64 -2 79 16 11 16 13 2 13 -9 0 -18 8 -20 18 -3 14 -5 15 -13 2z"/>
<path d="M6745 9078 c-4 -10 -15 -18 -24 -18 -9 0 -22 -5 -29 -12 -9 -9 -12
-9 -12 0 0 7 -4 12 -10 12 -5 0 -10 -25 -10 -55 0 -30 5 -55 10 -55 6 0 10 18
10 40 0 34 4 42 26 50 35 14 34 14 34 -24 0 -46 9 -66 28 -66 12 0 13 3 4 12
-16 16 -16 88 1 88 8 0 9 3 1 8 -6 4 -13 14 -16 22 -5 13 -7 12 -13 -2z"/>
<path d="M17480 9073 c0 -18 22 -63 32 -63 4 0 8 6 8 14 0 17 -39 66 -40 49z"/>
<path d="M16811 9051 c-2 -43 36 -106 74 -124 20 -9 44 -17 55 -17 11 0 35 8
55 17 38 18 76 81 74 124 0 17 -6 10 -18 -25 -30 -86 -67 -86 -91 -1 -7 25
-16 45 -20 45 -4 0 -13 -20 -20 -45 -24 -85 -61 -85 -91 1 -12 35 -18 42 -18
25z"/>
<path d="M4332 8980 c1 -47 3 -70 5 -52 4 28 7 31 27 26 32 -8 58 20 54 59 -4
38 -30 57 -57 40 -15 -10 -21 -10 -24 0 -3 7 -5 -26 -5 -73z m68 50 c21 -39
-15 -85 -46 -59 -27 22 -11 79 23 79 7 0 17 -9 23 -20z"/>
<path d="M4449 9044 c-12 -14 -10 -19 15 -39 31 -25 27 -50 -6 -39 -14 4 -18
2 -14 -5 10 -16 42 -13 57 5 12 14 10 19 -15 39 -28 23 -28 52 0 41 8 -3 14
-1 14 4 0 16 -36 11 -51 -6z"/>
<path d="M4870 9005 c0 -30 5 -55 10 -55 6 0 10 25 10 55 0 30 -4 55 -10 55
-5 0 -10 -25 -10 -55z"/>
<path d="M4969 9044 c-11 -14 -8 -20 21 -45 35 -28 31 -34 -15 -29 -15 1 -17
-1 -9 -10 19 -19 59 -8 62 17 2 16 -4 26 -22 35 -39 17 -32 34 12 29 6 -1 12
3 12 9 0 16 -46 12 -61 -6z"/>
<path d="M5186 9044 c-31 -31 -12 -94 29 -94 13 0 27 5 31 12 5 8 2 9 -11 5
-20 -8 -45 8 -45 29 0 9 12 14 35 14 36 0 46 15 23 38 -17 17 -44 15 -62 -4z
m54 -15 c0 -5 -11 -9 -25 -9 -26 0 -34 15 -12 23 16 5 37 -3 37 -14z"/>
<path d="M5280 9005 c0 -65 16 -74 22 -12 5 46 1 67 -13 67 -5 0 -9 -25 -9
-55z"/>
<path d="M5315 9050 c-3 -5 1 -10 9 -10 9 0 16 5 16 10 0 6 -4 10 -9 10 -6 0
-13 -4 -16 -10z"/>
<path d="M5535 9044 c-19 -20 -19 -68 0 -84 8 -7 26 -10 40 -8 16 4 25 1 25
-8 0 -18 -35 -35 -54 -28 -9 3 -16 1 -16 -5 0 -6 13 -11 29 -11 42 0 61 32 61
101 l0 56 -35 1 c-19 1 -41 -5 -50 -14z m53 -6 c18 -18 14 -56 -6 -67 -23 -12
-42 3 -42 34 0 20 17 45 30 45 3 0 11 -5 18 -12z"/>
<path d="M5650 9005 c0 -30 5 -55 10 -55 6 0 10 25 10 55 0 30 -4 55 -10 55
-5 0 -10 -25 -10 -55z"/>
<path d="M5892 9008 l3 -53 43 -1 42 -2 0 54 c0 30 -4 54 -10 54 -5 0 -10 -17
-10 -39 0 -39 -20 -68 -40 -56 -5 3 -10 26 -10 51 0 24 -5 44 -11 44 -6 0 -9
-21 -7 -52z"/>
<path d="M6180 9005 c0 -30 5 -55 10 -55 6 0 10 25 10 55 0 30 -4 55 -10 55
-5 0 -10 -25 -10 -55z"/>
<path d="M6236 9044 c-34 -33 -9 -94 38 -94 31 0 46 18 46 55 0 17 -5 36 -12
43 -17 17 -54 15 -72 -4z m50 -2 c21 -13 25 -49 9 -66 -20 -19 -27 -20 -43 -4
-21 21 -8 79 18 78 3 0 10 -4 16 -8z"/>
<path d="M6553 9048 c-21 -27 -23 -51 -8 -74 29 -45 88 -24 88 31 0 14 -6 32
-13 40 -15 18 -54 20 -67 3z m55 -10 c30 -30 -2 -93 -36 -71 -21 13 -27 50
-12 69 15 17 32 18 48 2z"/>
<path d="M6888 9049 c-21 -12 -24 -69 -6 -87 21 -21 56 -14 75 14 15 24 15 29
2 53 -16 28 -44 37 -71 20z m50 -11 c32 -32 1 -89 -37 -68 -26 13 -28 55 -3
69 22 13 26 13 40 -1z"/>
<path d="M7053 9005 c0 -33 2 -45 4 -27 2 18 2 45 0 60 -2 15 -4 0 -4 -33z"/>
<path d="M7106 9044 c-32 -32 -10 -94 34 -94 26 0 50 27 50 55 0 28 -24 55
-50 55 -10 0 -26 -7 -34 -16z m50 -2 c21 -13 25 -49 9 -66 -9 -9 -20 -16 -25
-16 -13 0 -40 30 -40 45 0 14 26 45 38 45 4 0 12 -4 18 -8z"/>
<path d="M17615 8999 c-16 -5 -42 -7 -57 -3 -14 3 -29 0 -33 -5 -3 -6 -24 -11
-46 -11 -21 0 -39 -4 -39 -8 0 -11 46 -32 70 -32 10 0 22 -5 25 -10 4 -6 27 4
58 26 82 59 84 62 22 43z"/>
<path d="M5480 8960 c0 -5 5 -10 10 -10 6 0 10 5 10 10 0 6 -4 10 -10 10 -5 0
-10 -4 -10 -10z"/>
<path d="M6130 8960 c0 -5 5 -10 10 -10 6 0 10 5 10 10 0 6 -4 10 -10 10 -5 0
-10 -4 -10 -10z"/>
<path d="M4782 8703 c2634 -2 6942 -2 9575 0 2634 1 479 2 -4787 2 -5266 0
-7421 -1 -4788 -2z"/>
<path d="M2203 8541 c-3 -12 -9 -21 -14 -21 -5 0 -9 -7 -9 -15 0 -8 -8 -15
-18 -15 -25 0 -34 -11 -22 -25 12 -14 -14 -30 -31 -19 -5 3 -9 0 -9 -6 0 -6
-4 -9 -9 -5 -5 3 -11 0 -14 -7 -2 -7 -2 -2 0 11 4 22 3 23 -13 10 -16 -12 -17
-12 -11 3 3 9 1 18 -5 20 -8 3 -8 9 0 24 10 18 11 18 20 -5 6 -18 11 -21 17
-12 10 16 -42 60 -70 60 -18 0 -18 -1 3 -9 31 -13 28 -15 -18 -14 -30 0 -40
-3 -40 -15 0 -14 -1 -14 -10 -1 -7 11 -10 12 -10 2 0 -8 9 -16 20 -19 11 -3
20 -10 21 -17 0 -6 2 -21 5 -33 2 -13 -1 -23 -7 -23 -5 0 -8 -4 -5 -8 3 -5 -1
-9 -9 -9 -10 0 -11 5 -6 15 9 17 -9 42 -30 42 -9 0 -9 3 0 14 21 25 -5 27 -40
3 -42 -28 -48 -46 -14 -39 26 5 65 -24 65 -48 0 -13 47 -13 55 0 3 5 12 7 20
3 10 -3 15 1 15 12 0 9 5 13 11 10 5 -4 8 -12 6 -18 -2 -7 0 -23 5 -36 6 -17
5 -27 -3 -32 -10 -6 -10 -11 -1 -22 12 -14 7 -27 -11 -27 -5 0 -6 7 -3 16 5
14 4 15 -8 5 -8 -7 -12 -19 -9 -27 3 -8 0 -14 -7 -14 -6 0 -8 5 -5 10 3 6 1
10 -5 10 -6 0 -3 9 7 20 10 10 20 32 21 48 2 29 2 29 -41 22 -30 -4 -47 -2
-56 7 -7 7 -16 11 -21 8 -6 -3 -7 0 -4 8 3 8 0 18 -7 23 -7 4 -14 3 -17 -4 -2
-8 -11 -8 -29 -1 -23 8 -24 8 -13 -6 11 -13 9 -15 -11 -15 l-24 -1 23 -18 c29
-25 28 -29 -5 -24 -25 3 -26 2 -7 -6 12 -5 25 -14 29 -20 7 -12 26 -15 23 -3
-2 4 2 8 7 10 6 1 10 -1 11 -5 2 -18 17 -43 23 -39 14 9 30 -9 21 -24 -6 -10
-12 -11 -22 -2 -11 8 -14 7 -14 -7 0 -16 4 -17 24 -10 16 6 29 6 38 -2 11 -9
14 -7 15 7 0 13 2 15 6 5 3 -8 -2 -20 -12 -27 -12 -9 -15 -19 -10 -35 6 -17 4
-21 -9 -16 -8 3 -18 2 -21 -3 -3 -4 -17 -5 -33 -1 -23 7 -27 12 -24 39 2 20
-1 32 -8 32 -7 0 -10 -6 -7 -14 10 -25 -5 -26 -24 -2 -23 29 -23 31 -3 50 10
11 12 21 6 32 -8 14 -10 14 -25 0 -8 -9 -23 -16 -31 -16 -9 0 -16 -6 -17 -12
0 -7 -3 -22 -5 -33 -12 -47 -16 -113 -7 -118 4 -3 14 6 20 20 10 20 10 23 -2
13 -11 -9 -14 -8 -12 8 1 14 9 19 34 20 18 1 33 -3 33 -9 0 -6 7 -9 15 -5 8 3
15 1 15 -4 0 -5 -8 -11 -17 -13 -17 -4 -17 -5 0 -6 11 -1 16 -6 12 -13 -4 -7
1 -4 9 6 16 19 16 19 41 -4 26 -24 25 -46 -2 -31 -11 6 -21 4 -31 -5 -7 -8
-22 -14 -33 -14 -10 0 -19 -4 -19 -9 0 -5 -14 -8 -30 -7 -23 2 -29 -1 -25 -12
3 -7 5 -18 5 -23 0 -6 13 -15 30 -20 16 -6 28 -14 26 -18 -3 -4 -1 -13 4 -20
11 -18 41 -6 47 19 3 13 14 20 29 20 13 0 32 8 43 19 18 18 18 17 19 -10 0
-21 -4 -29 -16 -29 -15 0 -15 -2 -2 -10 13 -9 13 -11 0 -20 -8 -5 -24 -10 -34
-10 -20 0 -20 0 0 15 18 13 18 14 -6 8 -14 -3 -40 -19 -57 -34 l-33 -28 53
-53 c28 -30 72 -62 97 -72 25 -10 59 -24 75 -31 17 -7 45 -15 64 -19 29 -5 32
-4 21 9 -7 8 -9 15 -4 15 4 0 3 5 -4 12 -14 14 -16 38 -3 38 5 0 11 -12 14
-27 12 -53 20 -57 84 -47 47 7 58 13 59 29 2 19 3 25 9 50 1 6 3 15 3 22 1 6
11 10 22 8 11 -2 22 0 25 6 4 5 15 9 26 9 11 0 18 4 15 8 -3 5 1 9 9 9 25 0
17 -17 -12 -27 -16 -6 -38 -16 -51 -22 l-23 -12 23 -12 c13 -7 29 -9 38 -4 8
4 20 9 25 11 6 1 9 10 7 19 -2 11 5 20 19 23 19 5 20 7 6 21 -11 12 -14 33
-12 85 1 38 6 74 9 80 4 6 4 26 0 46 -5 30 -9 33 -24 25 -25 -14 -53 -13 -44
1 3 6 0 15 -7 20 -17 11 -115 12 -105 2 4 -5 17 -8 28 -8 12 0 23 -6 26 -13 3
-10 -4 -12 -27 -9 -30 5 -31 4 -31 -29 0 -19 -3 -34 -8 -34 -4 0 -7 15 -7 33
0 31 -1 32 -42 32 -37 0 -43 -2 -43 -21 0 -12 -6 -26 -12 -32 -10 -8 -12 1
-10 44 2 30 0 54 -5 54 -19 -1 -35 -19 -30 -34 9 -22 -15 -21 -34 2 -23 27
-34 46 -22 39 6 -4 16 7 23 24 7 16 22 35 34 41 11 6 25 17 29 24 6 11 14 9
35 -11 15 -14 30 -25 35 -25 12 0 -3 73 -19 91 -15 17 -19 43 -5 35 5 -3 16 5
25 19 11 17 26 25 44 25 37 0 53 -12 42 -30 -6 -8 -10 -23 -10 -34 0 -17 1
-17 25 -2 22 14 25 15 25 1 0 -8 9 -15 19 -15 10 0 21 -7 24 -14 5 -12 1 -13
-16 -7 -25 9 -137 -45 -137 -66 0 -7 2 -13 3 -13 7 0 72 33 86 44 17 13 43 17
35 5 -3 -5 2 -11 10 -14 9 -3 24 -8 34 -12 9 -3 21 -5 25 -4 5 1 6 -3 2 -8 -3
-6 4 -27 15 -48 14 -26 19 -30 16 -15 -5 23 -4 24 16 5 21 -18 21 -18 16 4 -4
16 -2 20 10 16 8 -4 13 -2 10 3 -3 5 4 18 15 28 20 19 20 19 15 -2 -5 -17 -2
-22 14 -22 14 0 18 5 14 15 -4 11 1 15 19 15 14 0 25 5 25 10 0 6 -7 10 -15
10 -8 0 -15 9 -15 20 0 11 -4 20 -10 20 -5 0 -10 5 -10 10 0 6 7 10 15 10 21
0 19 14 -7 55 -25 38 -51 45 -68 18 -10 -16 -11 -16 -6 -1 3 12 -1 16 -15 15
-10 -1 -19 -5 -19 -10 0 -4 -5 -5 -10 -2 -6 4 -8 11 -5 16 7 10 5 11 -44 15
-45 3 -55 15 -38 47 14 27 14 27 32 7 10 -11 23 -20 29 -20 6 0 4 5 -4 10 -13
9 -13 11 0 20 8 5 22 10 30 11 13 0 13 1 0 6 -8 4 -21 13 -28 22 -8 9 -11 10
-7 3 3 -6 0 -18 -7 -26 -12 -11 -17 -11 -32 -1 -19 14 -5 31 17 19 9 -5 9 -4
-1 7 -10 11 -16 11 -32 1 -27 -16 -38 -15 -36 4 1 11 -8 17 -26 19 -22 3 -28
-1 -28 -16 0 -11 -7 -19 -16 -19 -13 0 -12 5 6 29 13 20 17 32 10 36 -7 4 -14
-2 -17 -14z m72 -77 c19 -13 18 -14 -7 -14 -14 0 -31 6 -37 13 -15 19 17 19
44 1z m-125 -34 c0 -5 -4 -10 -10 -10 -5 0 -10 5 -10 10 0 6 5 10 10 10 6 0
10 -4 10 -10z m-6 -44 c-10 -8 -21 -12 -23 -10 -3 2 4 11 15 18 10 8 21 12 23
10 3 -2 -4 -11 -15 -18z m249 -29 c3 -8 -3 -14 -14 -14 -11 -1 -17 2 -14 7 3
6 -1 7 -9 4 -22 -8 -20 -24 2 -24 10 0 25 -9 35 -20 9 -11 13 -20 7 -20 -5 0
-12 5 -15 10 -3 6 -22 10 -41 10 -32 0 -35 2 -28 23 4 12 12 25 18 29 18 12
53 9 59 -5z m37 -6 c0 -6 -4 -13 -10 -16 -5 -3 -10 1 -10 9 0 9 5 16 10 16 6
0 10 -4 10 -9z m67 -27 c-3 -3 -12 -4 -19 -1 -8 3 -5 6 6 6 11 1 17 -2 13 -5z
m-564 -11 c-7 -2 -19 -2 -25 0 -7 3 -2 5 12 5 14 0 19 -2 13 -5z m567 -13 c0
-5 -7 -10 -16 -10 -8 0 -12 5 -9 10 3 6 10 10 16 10 5 0 9 -4 9 -10z m-30 -30
c0 -5 -5 -10 -11 -10 -5 0 -7 5 -4 10 3 6 8 10 11 10 2 0 4 -4 4 -10z m-55
-10 c-3 -5 -13 -10 -21 -10 -8 0 -12 5 -9 10 3 6 13 10 21 10 8 0 12 -4 9 -10z
m-390 -55 c0 -10 -7 -21 -15 -23 -12 -4 -13 -2 -3 10 10 11 10 17 0 27 -10 11
-9 13 3 9 8 -3 15 -13 15 -23z m435 15 c0 -5 -8 -10 -17 -10 -15 0 -16 2 -3
10 19 12 20 12 20 0z m-525 -90 c3 -5 -1 -10 -9 -10 -9 0 -16 5 -16 10 0 6 4
10 9 10 6 0 13 -4 16 -10z m79 -73 c4 -17 3 -26 -2 -23 -6 3 -12 19 -14 36 -6
37 7 27 16 -13z m-164 3 c0 -5 -2 -10 -4 -10 -3 0 -8 5 -11 10 -3 6 -1 10 4
10 6 0 11 -4 11 -10z m40 6 c0 -3 -4 -8 -10 -11 -5 -3 -10 -1 -10 4 0 6 5 11
10 11 6 0 10 -2 10 -4z m439 -46 c0 -10 -3 -8 -9 5 -12 27 -12 43 0 25 5 -8 9
-22 9 -30z m-406 9 c-6 -6 -17 -8 -24 -3 -9 5 -8 9 7 14 23 9 31 3 17 -11z
m-111 -11 c-7 -7 -12 -8 -12 -2 0 14 12 26 19 19 2 -3 -1 -11 -7 -17z m31 -13
c-3 -9 -8 -14 -10 -11 -3 3 -2 9 2 15 9 16 15 13 8 -4z m148 -22 c-10 -4 -11
-7 -1 -13 7 -5 14 -25 16 -47 1 -21 3 -38 4 -38 7 0 5 -47 -3 -57 -7 -10 -8
-9 -4 2 3 9 -1 24 -9 35 -17 23 -18 55 -1 55 7 1 5 6 -5 14 -10 7 -18 23 -18
35 0 14 6 21 18 20 12 0 13 -2 3 -6z m349 -17 c0 -3 -4 -8 -10 -11 -5 -3 -10
-1 -10 4 0 6 5 11 10 11 6 0 10 -2 10 -4z m-476 -65 c-7 -8 -35 9 -29 19 4 6
11 5 20 -3 7 -6 11 -14 9 -16z m300 -56 c5 0 11 -11 13 -24 l3 -23 -25 23
c-26 25 -34 46 -12 32 6 -4 16 -8 21 -8z m186 -30 c-7 -8 -17 -12 -23 -8 -6 4
-3 9 9 14 27 11 28 11 14 -6z"/>
<path d="M2405 8441 c3 -6 -3 -14 -12 -20 -10 -5 -15 -12 -12 -16 8 -7 39 22
39 36 0 5 -5 9 -11 9 -5 0 -8 -4 -4 -9z"/>
<path d="M2190 8345 c0 -8 6 -15 13 -15 8 0 14 7 14 15 0 8 -6 15 -14 15 -7 0
-13 -7 -13 -15z"/>
<path d="M2670 8200 l0 -120 60 0 c34 0 74 7 89 15 67 34 67 176 0 210 -15 8
-55 15 -89 15 l-60 0 0 -120z m146 69 c13 -15 19 -36 19 -69 0 -65 -23 -90
-82 -90 l-43 0 0 90 0 90 43 0 c32 0 49 -6 63 -21z"/>
<path d="M2910 8305 c0 -8 7 -15 15 -15 8 0 15 7 15 15 0 8 -7 15 -15 15 -8 0
-15 -7 -15 -15z"/>
<path d="M2990 8200 c0 -73 4 -120 10 -120 6 0 10 47 10 120 0 73 -4 120 -10
120 -6 0 -10 -47 -10 -120z"/>
<path d="M3230 8200 c0 -129 14 -162 23 -53 4 48 10 70 23 80 23 17 29 16 48
-3 11 -11 16 -35 16 -80 0 -50 3 -64 15 -64 16 0 21 68 9 130 -9 41 -43 59
-85 43 -29 -11 -29 -11 -29 28 0 21 -4 39 -10 39 -6 0 -10 -47 -10 -120z"/>
<path d="M2220 8280 c0 -5 7 -10 15 -10 8 0 15 5 15 10 0 6 -7 10 -15 10 -8 0
-15 -4 -15 -10z"/>
<path d="M2910 8170 c0 -73 3 -90 15 -90 12 0 15 17 15 90 0 73 -3 90 -15 90
-12 0 -15 -17 -15 -90z"/>
<path d="M3082 8253 c-7 -2 -17 -13 -22 -24 -16 -30 4 -55 55 -69 48 -13 58
-33 25 -50 -21 -11 -60 2 -60 20 0 6 -7 10 -15 10 -21 0 -19 -16 5 -40 40 -40
124 -13 118 38 -2 22 -12 30 -55 46 -57 20 -64 29 -34 46 21 10 51 4 51 -11 0
-5 7 -9 15 -9 22 0 19 27 -4 40 -20 10 -57 12 -79 3z"/>
<path d="M3429 8241 c-20 -16 -24 -29 -24 -71 0 -42 4 -55 24 -71 13 -10 35
-19 50 -19 32 0 71 25 71 46 0 19 -7 18 -37 -6 -14 -11 -30 -20 -34 -20 -12 0
-49 38 -49 50 0 6 28 10 65 10 72 0 78 7 50 59 -23 46 -75 55 -116 22z m81
-21 c27 -27 17 -40 -30 -40 -21 0 -41 4 -45 10 -6 10 29 50 45 50 6 0 19 -9
30 -20z"/>
<path d="M3600 8170 c0 -73 3 -90 15 -90 12 0 15 14 15 69 0 68 15 101 39 87
5 -4 12 -2 16 4 10 16 -25 25 -46 11 -12 -7 -19 -7 -19 -1 0 5 -4 10 -10 10
-6 0 -10 -37 -10 -90z"/>
<path d="M14100 8160 c0 -60 4 -100 10 -100 6 0 10 18 10 40 l0 40 41 0 c61 0
79 14 79 61 0 33 -4 41 -26 49 -14 6 -45 10 -70 10 l-44 0 0 -100z m120 60
c19 -36 -3 -60 -55 -60 l-45 0 0 40 0 40 45 0 c34 0 47 -5 55 -20z"/>
<path d="M14607 8253 c-4 -3 -7 -15 -7 -25 0 -10 -7 -18 -15 -18 -8 0 -15 -4
-15 -10 0 -5 7 -10 15 -10 10 0 15 -17 18 -67 l3 -68 2 68 c2 52 5 67 17 67 8
0 15 5 15 10 0 6 -7 10 -15 10 -22 0 -18 21 5 27 11 3 20 9 20 14 0 10 -34 12
-43 2z"/>
<path d="M14810 8160 c0 -60 4 -100 10 -100 6 0 10 40 10 100 0 60 -4 100 -10
100 -6 0 -10 -40 -10 -100z"/>
<path d="M14870 8245 c0 -8 5 -15 10 -15 6 0 10 7 10 15 0 8 -4 15 -10 15 -5
0 -10 -7 -10 -15z"/>
<path d="M15372 8178 c-16 -46 -33 -91 -37 -100 -4 -10 -3 -18 3 -18 6 0 15
14 21 30 9 27 14 30 55 30 40 0 45 -3 55 -30 5 -16 15 -30 21 -30 7 0 10 4 8
8 -1 4 -19 49 -38 100 -19 50 -40 92 -46 92 -6 0 -25 -37 -42 -82z m45 -36
c-16 -2 -31 -2 -33 1 -2 2 4 26 13 53 l16 49 17 -50 17 -50 -30 -3z"/>
<path d="M15532 8160 c0 -58 2 -99 5 -93 3 10 10 10 24 2 28 -15 55 -3 69 31
26 62 -18 128 -68 101 -19 -10 -21 -8 -25 26 -2 21 -4 -9 -5 -67z m77 16 c17
-20 10 -77 -11 -90 -26 -16 -52 4 -56 43 -4 36 12 61 38 61 10 0 23 -6 29 -14z"/>
<path d="M16355 8249 c-34 -20 -45 -41 -45 -90 0 -65 24 -94 80 -94 32 0 47 6
61 24 10 13 16 27 13 32 -3 5 -15 -2 -26 -16 -41 -53 -110 -20 -112 54 -1 68
60 106 106 64 22 -20 38 -9 17 12 -20 20 -70 28 -94 14z"/>
<path d="M14520 8231 c0 -11 -6 -22 -12 -25 -10 -5 -10 -7 0 -12 7 -3 12 -26
12 -59 0 -51 20 -89 38 -70 4 4 1 10 -5 12 -8 3 -13 24 -13 58 0 33 5 56 13
59 10 5 10 7 0 12 -7 3 -13 14 -13 25 0 10 -4 19 -10 19 -5 0 -10 -9 -10 -19z"/>
<path d="M15975 8240 c-11 -18 -7 -137 6 -161 10 -20 39 -26 39 -9 0 6 -7 10
-15 10 -19 0 -22 106 -2 113 9 4 9 8 1 14 -7 4 -13 17 -16 28 -3 17 -5 17 -13
5z"/>
<path d="M16805 8240 c-11 -18 -7 -137 6 -161 10 -20 39 -26 39 -9 0 6 -7 10
-15 10 -19 0 -22 106 -2 113 9 4 9 8 1 14 -7 4 -13 17 -16 28 -3 17 -5 17 -13
5z"/>
<path d="M17161 8233 c0 -12 -7 -24 -13 -27 -10 -5 -10 -7 0 -12 7 -4 12 -27
12 -65 0 -45 4 -61 15 -66 24 -8 30 4 11 22 -21 22 -22 105 -1 105 8 0 15 5
15 10 0 6 -6 10 -14 10 -8 0 -17 10 -19 23 -4 22 -4 22 -6 0z"/>
<path d="M14295 8185 c-14 -13 -25 -36 -25 -50 0 -27 40 -75 62 -75 8 0 24 7
36 16 17 12 22 25 22 59 0 34 -5 47 -22 59 -31 22 -45 20 -73 -9z m77 -20 c24
-53 -26 -109 -68 -75 -17 15 -19 71 -2 88 21 21 57 14 70 -13z"/>
<path d="M14432 8135 c1 -76 1 -77 7 -25 7 61 15 80 37 80 8 0 14 5 14 10 0
14 -27 13 -36 -1 -4 -8 -9 -7 -15 2 -5 9 -8 -18 -7 -66z"/>
<path d="M14683 8195 c-34 -24 -33 -98 1 -120 47 -31 96 1 96 62 0 57 -54 88
-97 58z m65 -17 c17 -17 15 -73 -2 -88 -42 -34 -92 22 -68 75 13 27 49 34 70
13z"/>
<path d="M14870 8135 c0 -43 4 -75 10 -75 6 0 10 32 10 75 0 43 -4 75 -10 75
-6 0 -10 -32 -10 -75z"/>
<path d="M14945 8185 c-14 -13 -25 -36 -25 -50 0 -28 40 -75 63 -75 32 0 61
36 61 75 0 27 -6 43 -23 56 -31 25 -47 24 -76 -6z m77 -20 c16 -36 0 -79 -32
-83 -28 -5 -50 20 -50 58 0 53 61 71 82 25z"/>
<path d="M15685 8185 c-14 -13 -25 -36 -25 -50 0 -28 40 -75 63 -75 32 0 61
36 61 75 0 27 -6 43 -23 56 -31 25 -47 24 -76 -6z m77 -20 c16 -36 0 -79 -32
-83 -28 -5 -50 20 -50 58 0 53 61 71 82 25z"/>
<path d="M15820 8145 c0 -59 2 -66 24 -76 17 -8 29 -8 44 0 15 8 22 8 25 -2 3
-6 5 24 5 68 -1 78 -1 79 -7 21 -6 -62 -24 -85 -55 -73 -12 5 -16 20 -16 67 0
33 -4 60 -10 60 -6 0 -10 -28 -10 -65z"/>
<path d="M16515 8185 c-14 -13 -25 -36 -25 -50 0 -28 40 -75 63 -75 32 0 61
36 61 75 0 27 -6 43 -23 56 -31 25 -47 24 -76 -6z m77 -20 c16 -36 0 -79 -32
-83 -28 -5 -50 20 -50 58 0 53 61 71 82 25z"/>
<path d="M16650 8138 c0 -93 18 -105 22 -15 3 62 3 62 33 62 30 0 30 0 33 -62
3 -73 22 -86 22 -15 0 88 -23 117 -71 92 -17 -10 -23 -9 -30 1 -5 9 -9 -17 -9
-63z"/>
<path d="M16892 8194 c-12 -8 -22 -20 -22 -26 0 -6 9 -3 19 6 25 23 66 18 66
-9 0 -14 -9 -21 -34 -26 -18 -4 -40 -13 -47 -21 -32 -31 21 -72 64 -49 13 7
22 7 30 -1 9 -9 12 3 12 49 0 86 -33 115 -88 77z m68 -78 c0 -20 -26 -38 -51
-34 -31 4 -35 26 -7 37 34 14 58 13 58 -3z"/>
<path d="M17040 8192 c-44 -36 -18 -132 36 -132 16 0 54 35 54 50 0 18 -18 10
-23 -10 -8 -30 -54 -27 -69 5 -25 56 35 116 69 69 12 -16 13 -16 13 -1 0 15
-28 37 -48 37 -5 0 -20 -8 -32 -18z"/>
<path d="M2120 8142 c0 -4 13 -8 30 -8 16 -1 27 2 24 7 -6 11 -54 12 -54 1z"/>
<path d="M2190 8129 c0 -5 5 -7 10 -4 6 3 10 8 10 11 0 2 -4 4 -10 4 -5 0 -10
-5 -10 -11z"/>
<path d="M7890 6715 l0 -235 25 0 25 0 0 235 0 235 -25 0 -25 0 0 -235z"/>
<path d="M8040 6893 c0 -76 8 -105 29 -101 17 3 29 53 30 121 1 35 -1 37 -29
37 -30 0 -30 0 -30 -57z"/>
<path d="M9270 6716 l0 -236 103 0 c120 0 171 12 211 48 47 44 66 97 66 188 0
66 -4 89 -26 132 -41 82 -73 96 -226 101 l-128 3 0 -236z m258 158 c43 -32 62
-80 62 -159 0 -131 -43 -176 -175 -183 l-85 -5 0 188 0 188 85 -5 c65 -3 92
-9 113 -24z"/>
<path d="M9740 6915 c0 -31 3 -35 25 -35 22 0 25 4 25 35 0 31 -3 35 -25 35
-22 0 -25 -4 -25 -35z"/>
<path d="M9880 6715 l0 -235 30 0 30 0 0 235 0 235 -30 0 -30 0 0 -235z"/>
<path d="M10360 6715 l0 -235 25 0 25 0 0 110 c0 60 5 120 11 133 21 47 94 62
129 27 18 -18 20 -33 20 -145 l0 -125 30 0 30 0 0 113 c0 171 -19 213 -99 224
-29 4 -51 0 -81 -16 l-40 -21 0 85 c0 84 0 85 -25 85 l-25 0 0 -235z"/>
<path d="M8243 6810 c-32 -10 -73 -52 -73 -76 0 -18 43 -30 48 -14 11 31 43
50 85 50 55 0 89 -23 85 -58 -3 -24 -8 -28 -58 -35 -134 -20 -170 -42 -170
-105 0 -79 91 -115 185 -73 58 26 55 25 55 1 0 -16 7 -20 31 -20 24 0 30 3 25
16 -3 9 -9 74 -13 145 -5 116 -8 130 -29 150 -26 24 -119 35 -171 19z m147
-198 c0 -58 -65 -101 -130 -87 -56 12 -61 77 -7 90 135 31 137 31 137 -3z"/>
<path d="M8540 6650 l0 -170 24 0 c24 0 24 1 27 121 4 118 5 121 32 145 36 31
81 32 101 2 12 -17 16 -50 16 -145 l0 -123 25 0 25 0 0 104 c0 146 18 185 87
186 53 0 63 -25 63 -167 l0 -123 25 0 25 0 0 139 c0 133 -1 141 -24 168 -21
24 -32 28 -75 28 -41 0 -55 -5 -77 -27 l-27 -26 -22 26 c-32 37 -111 39 -149
3 l-26 -24 0 26 c0 22 -5 27 -25 27 l-25 0 0 -170z"/>
<path d="M9740 6650 l0 -170 25 0 25 0 0 170 0 170 -25 0 -25 0 0 -170z"/>
<path d="M10073 6806 c-36 -17 -53 -43 -53 -83 0 -46 21 -64 111 -93 94 -31
113 -48 85 -79 -14 -16 -31 -21 -67 -21 -40 0 -51 4 -72 29 -18 22 -31 28 -46
24 -25 -6 -27 -21 -5 -52 62 -88 254 -53 254 46 0 56 -14 71 -93 93 -103 30
-117 37 -117 58 0 30 21 42 72 42 40 0 50 -4 64 -25 17 -26 30 -30 52 -16 17
10 -1 52 -30 70 -32 20 -118 24 -155 7z"/>
<path d="M10795 6806 c-86 -38 -119 -147 -75 -244 43 -94 193 -110 258 -27 28
35 28 52 0 61 -15 4 -25 1 -34 -12 -28 -41 -48 -54 -85 -54 -47 0 -87 32 -95
78 l-6 32 126 0 126 0 0 28 c0 45 -41 113 -80 134 -41 21 -93 23 -135 4z m130
-61 c47 -46 36 -55 -70 -55 -52 0 -95 4 -95 9 0 5 12 23 26 40 22 26 33 31 70
31 34 0 51 -6 69 -25z"/>
<path d="M11080 6650 l0 -170 29 0 29 0 4 126 c3 112 5 127 23 140 11 9 34 14
52 12 25 -3 33 0 37 17 9 32 8 34 -30 41 -30 5 -40 2 -65 -22 l-29 -28 0 27
c0 22 -5 27 -25 27 l-25 0 0 -170z"/>
<path d="M13010 6715 c-35 -35 -62 -66 -59 -67 2 -2 56 -16 119 -32 63 -16
121 -32 127 -35 9 -5 -9 -28 -51 -70 l-63 -63 -131 34 -131 34 -68 -68 c-37
-37 -65 -69 -62 -71 2 -3 61 -18 131 -34 l127 -30 68 63 c37 35 73 64 78 63 6
0 71 -15 145 -33 l135 -34 24 21 c12 12 41 43 62 68 l39 47 -133 32 c-72 18
-136 35 -141 38 -4 2 20 33 55 68 35 35 61 65 58 68 -4 5 -242 66 -256 66 -5
0 -37 -29 -73 -65z"/>
<path d="M14950 6228 l-44 -51 23 -110 23 -109 -34 -37 c-78 -86 -123 -131
-129 -131 -3 0 -16 45 -29 100 -12 55 -24 100 -25 100 -11 0 -545 -574 -545
-585 0 -18 160 -606 169 -623 17 -31 161 111 463 456 l178 204 0 419 c0 230
-1 419 -2 419 -2 -1 -23 -24 -48 -52z"/>
<path d="M4955 6167 c-110 -44 -201 -81 -202 -82 -2 -1 56 -159 95 -259 l19
-48 27 38 c15 22 59 91 98 154 39 63 93 150 120 194 27 43 47 80 46 81 -2 1
-93 -34 -203 -78z"/>
<path d="M7346 6168 c-55 -15 -119 -81 -135 -140 -8 -27 -12 -78 -9 -122 3
-64 8 -81 34 -118 46 -66 103 -93 194 -93 62 0 85 5 133 28 l57 28 0 95 0 94
-95 0 c-94 0 -95 0 -95 -25 0 -23 3 -24 68 -27 l67 -3 0 -49 c0 -47 -2 -50
-39 -69 -59 -31 -122 -33 -175 -5 -73 38 -86 64 -86 173 0 79 3 98 21 121 40
54 70 69 137 69 71 -1 108 -20 127 -66 10 -24 17 -28 34 -23 29 9 29 10 22 38
-20 81 -141 125 -260 94z"/>
<path d="M7710 5935 l0 -235 25 0 25 0 0 235 0 235 -25 0 -25 0 0 -235z"/>
<path d="M8440 6085 l0 -85 -40 21 c-63 33 -137 14 -176 -46 -27 -41 -30 -134
-6 -187 35 -79 118 -110 187 -70 34 21 35 21 35 2 0 -15 7 -20 25 -20 l25 0 0
235 0 235 -25 0 c-25 0 -25 -1 -25 -85z m-35 -119 c46 -46 46 -153 0 -193 -39
-34 -87 -31 -119 8 -22 26 -26 40 -26 95 0 56 4 68 25 89 33 34 87 34 120 1z"/>
<path d="M11801 6083 c2 -167 12 -257 30 -261 17 -3 19 10 35 251 l7 97 -37 0
-36 0 1 -87z"/>
<path d="M8803 6143 c-18 -12 -23 -25 -23 -59 0 -40 -2 -44 -25 -44 -33 0 -35
-37 -2 -42 21 -3 22 -7 25 -133 2 -118 4 -132 23 -147 12 -10 36 -18 55 -18
29 0 34 3 34 24 0 19 -6 25 -27 28 l-28 3 -3 123 -3 122 31 0 c23 0 30 4 30
20 0 15 -7 20 -30 20 -29 0 -29 1 -32 59 -3 58 -3 58 -25 44z"/>
<path d="M4486 6107 c-17 -12 -17 -15 1 -51 l18 -39 6 29 c16 70 9 86 -25 61z"/>
<path d="M7915 6021 c-45 -20 -76 -68 -53 -82 22 -14 33 -10 56 21 20 26 29
30 71 30 55 0 85 -23 79 -61 -3 -24 -15 -29 -122 -44 -93 -13 -135 -90 -82
-152 21 -25 31 -28 83 -28 36 0 71 7 92 18 42 21 38 21 44 -3 3 -13 14 -20 29
-20 l23 0 -3 127 c-2 71 -8 141 -14 157 -21 54 -124 73 -203 37z m155 -189 c0
-40 -25 -70 -69 -83 -48 -14 -94 4 -99 40 -5 32 7 41 75 56 88 20 93 19 93
-13z"/>
<path d="M9011 6022 c-55 -27 -75 -63 -79 -140 -5 -107 40 -169 130 -179 69
-8 133 24 158 79 42 93 13 204 -62 238 -54 24 -103 25 -147 2z m140 -61 c26
-26 29 -36 29 -91 0 -55 -3 -65 -29 -91 -58 -58 -150 -27 -165 56 -17 86 26
155 96 155 30 0 46 -7 69 -29z"/>
<path d="M9553 6033 c-30 -6 -73 -59 -73 -88 0 -44 39 -75 125 -98 69 -20 80
-26 83 -47 5 -32 -21 -50 -73 -50 -44 0 -85 22 -85 47 0 11 -6 14 -22 9 -13
-3 -26 -6 -30 -6 -13 0 4 -34 30 -62 17 -18 40 -29 68 -34 93 -14 160 21 171
88 7 49 -24 80 -103 102 -103 28 -129 49 -99 80 33 33 123 16 137 -25 7 -21
50 0 46 23 -7 46 -99 78 -175 61z"/>
<path d="M9895 6026 c-86 -38 -119 -147 -75 -244 43 -94 193 -110 258 -27 28
35 28 52 0 61 -15 4 -25 1 -34 -12 -28 -41 -48 -54 -85 -54 -47 0 -87 32 -95
78 l-6 32 126 0 126 0 0 28 c0 45 -41 113 -80 134 -41 21 -93 23 -135 4z m130
-61 c47 -46 36 -55 -70 -55 -52 0 -95 4 -95 9 0 5 12 23 26 40 22 26 33 31 70
31 34 0 51 -6 69 -25z"/>
<path d="M10250 6022 c-56 -28 -80 -73 -80 -152 0 -53 5 -74 23 -101 59 -89
205 -91 258 -5 25 40 24 44 -8 52 -19 5 -28 3 -31 -6 -11 -33 -52 -60 -90 -60
-44 0 -85 35 -96 83 l-6 27 125 0 125 0 0 39 c0 74 -71 141 -150 141 -19 0
-51 -8 -70 -18z m132 -52 c14 -11 28 -29 31 -40 5 -19 1 -20 -89 -20 -105 0
-116 9 -69 55 31 32 91 34 127 5z"/>
<path d="M10702 6028 c3 -7 31 -82 63 -166 45 -122 56 -160 51 -188 -8 -39
-45 -69 -76 -61 -22 6 -25 -5 -10 -34 6 -11 21 -19 36 -19 50 0 76 44 157 263
42 114 77 210 77 213 0 3 -12 4 -26 2 -24 -3 -31 -14 -70 -122 -24 -66 -44
-127 -44 -135 -1 -27 -14 3 -60 137 -42 119 -43 122 -72 122 -20 0 -29 -4 -26
-12z"/>
<path d="M11121 6022 c-55 -27 -75 -63 -79 -140 -5 -107 40 -169 130 -179 69
-8 133 24 158 79 42 93 13 204 -62 238 -54 24 -103 25 -147 2z m140 -61 c26
-26 29 -36 29 -91 0 -55 -3 -65 -29 -91 -23 -22 -39 -29 -69 -29 -70 0 -113
69 -96 155 15 83 107 114 165 56z"/>
<path d="M11422 5900 c3 -137 3 -140 31 -167 23 -24 36 -28 81 -28 44 0 59 5
80 24 l26 24 0 -26 c0 -22 5 -27 25 -27 l25 0 0 170 0 170 -24 0 c-24 0 -24
-1 -28 -121 -3 -118 -4 -121 -31 -145 -32 -28 -73 -31 -105 -8 -21 14 -22 22
-22 145 l0 129 -31 0 -31 0 4 -140z"/>
<path d="M11800 5735 c0 -32 2 -35 30 -35 28 0 30 3 30 35 0 32 -2 35 -30 35
-28 0 -30 -3 -30 -35z"/>
<path d="M13236 5345 c-115 -113 -208 -206 -205 -208 8 -7 131 -38 135 -34 5
5 283 447 281 446 -1 0 -96 -92 -211 -204z"/>
<path d="M890 4360 c0 -60 4 -100 10 -100 6 0 10 40 10 100 0 60 -4 100 -10
100 -6 0 -10 -40 -10 -100z"/>
<path d="M963 4431 c1 -16 5 -27 10 -24 10 6 9 53 -3 53 -5 0 -8 -13 -7 -29z"/>
<path d="M1837 4453 c-4 -3 -7 -15 -7 -25 0 -10 -7 -18 -15 -18 -8 0 -15 -4
-15 -10 0 -5 7 -10 15 -10 12 0 15 -14 15 -65 0 -37 4 -65 10 -65 6 0 10 28
10 64 0 42 4 66 13 70 10 5 10 7 0 12 -18 8 -16 34 2 34 8 0 15 5 15 10 0 11
-33 14 -43 3z"/>
<path d="M2710 4425 c0 -32 -2 -34 -19 -23 -49 30 -97 -39 -71 -103 12 -29 29
-36 83 -37 l27 0 0 99 c0 59 -4 99 -10 99 -5 0 -10 -16 -10 -35z m-12 -47 c17
-17 15 -73 -3 -88 -22 -18 -48 -8 -59 22 -19 53 27 101 62 66z"/>
<path d="M3200 4360 c0 -60 4 -100 10 -100 6 0 10 40 10 100 0 60 -4 100 -10
100 -6 0 -10 -40 -10 -100z"/>
<path d="M3800 4398 c0 -35 5 -70 10 -78 7 -11 10 -5 10 25 0 22 3 57 6 78 5
30 4 37 -10 37 -13 0 -16 -11 -16 -62z"/>
<path d="M3950 4360 c0 -60 4 -100 10 -100 6 0 10 40 10 100 0 60 -4 100 -10
100 -6 0 -10 -40 -10 -100z"/>
<path d="M4590 4360 c0 -60 4 -100 10 -100 6 0 10 22 10 48 0 55 18 86 46 80
16 -3 19 -13 22 -66 4 -82 22 -80 22 2 0 74 -13 91 -60 81 -28 -6 -30 -5 -30
24 0 17 -4 31 -10 31 -6 0 -10 -40 -10 -100z"/>
<path d="M4890 4360 c0 -60 4 -100 10 -100 6 0 10 40 10 100 0 60 -4 100 -10
100 -6 0 -10 -40 -10 -100z"/>
<path d="M5680 4363 l0 -98 32 -2 c52 -4 78 20 78 71 0 53 -26 82 -65 72 -23
-6 -25 -4 -25 24 0 16 -4 30 -10 30 -6 0 -10 -39 -10 -97z m78 15 c17 -17 15
-73 -3 -88 -36 -30 -76 21 -56 73 11 29 39 35 59 15z"/>
<path d="M5970 4445 c0 -8 5 -15 10 -15 6 0 10 7 10 15 0 8 -4 15 -10 15 -5 0
-10 -7 -10 -15z"/>
<path d="M6030 4360 c0 -60 4 -100 10 -100 6 0 10 40 10 100 0 60 -4 100 -10
100 -6 0 -10 -40 -10 -100z"/>
<path d="M6180 4425 c0 -32 -2 -34 -19 -23 -49 30 -97 -39 -71 -103 12 -29 29
-36 83 -37 l27 0 0 99 c0 59 -4 99 -10 99 -5 0 -10 -16 -10 -35z m-12 -47 c17
-17 15 -73 -3 -88 -22 -18 -48 -8 -59 22 -19 53 27 101 62 66z"/>
<path d="M7010 4425 c0 -32 -2 -34 -19 -23 -49 30 -97 -39 -71 -103 12 -29 29
-36 83 -37 l27 0 0 99 c0 59 -4 99 -10 99 -5 0 -10 -16 -10 -35z m-12 -47 c17
-17 15 -73 -3 -88 -22 -18 -48 -8 -59 22 -19 53 27 101 62 66z"/>
<path d="M7587 4453 c-4 -3 -7 -14 -7 -24 0 -9 -6 -20 -12 -23 -10 -5 -10 -7
0 -12 8 -4 12 -28 12 -70 0 -36 4 -64 10 -64 6 0 10 28 10 65 0 51 3 65 15 65
8 0 15 5 15 10 0 6 -7 10 -15 10 -8 0 -15 7 -15 15 0 8 6 15 14 15 8 0 18 5
21 10 7 11 -38 14 -48 3z"/>
<path d="M9130 4360 c0 -60 4 -100 10 -100 6 0 10 5 10 11 0 8 5 8 15 -1 23
-19 61 -4 75 29 25 61 -12 120 -66 107 -21 -6 -24 -3 -24 24 0 16 -4 30 -10
30 -6 0 -10 -40 -10 -100z m92 5 c23 -51 -20 -106 -57 -75 -18 15 -20 71 -3
88 20 20 48 14 60 -13z"/>
<path d="M9410 4445 c0 -8 5 -15 10 -15 6 0 10 7 10 15 0 8 -4 15 -10 15 -5 0
-10 -7 -10 -15z"/>
<path d="M9770 4360 l0 -100 60 0 c33 0 60 4 60 10 0 6 -22 10 -50 10 l-50 0
0 90 c0 53 -4 90 -10 90 -6 0 -10 -40 -10 -100z"/>
<path d="M10210 4360 c0 -60 4 -100 10 -100 6 0 10 13 10 29 0 36 20 51 34 27
22 -37 44 -61 51 -54 3 3 -5 25 -20 48 l-27 42 28 29 c19 20 23 29 13 29 -9 0
-26 -11 -39 -25 -13 -14 -27 -25 -32 -25 -4 0 -8 23 -8 50 0 28 -4 50 -10 50
-6 0 -10 -40 -10 -100z"/>
<path d="M10500 4360 c0 -110 17 -139 22 -38 3 53 6 63 22 66 28 6 46 -25 46
-80 0 -29 4 -48 11 -48 17 0 7 129 -12 141 -7 5 -26 7 -41 5 -25 -5 -28 -3
-28 24 0 17 -4 30 -10 30 -6 0 -10 -40 -10 -100z"/>
<path d="M11180 4360 c0 -60 4 -100 10 -100 6 0 10 24 10 53 0 55 12 77 41 77
22 0 29 -20 29 -81 0 -27 5 -49 10 -49 6 0 10 26 10 59 0 71 -18 96 -62 87
-26 -5 -28 -3 -28 24 0 17 -4 30 -10 30 -6 0 -10 -40 -10 -100z"/>
<path d="M12293 4453 c-7 -2 -13 -13 -13 -23 0 -10 -6 -21 -12 -24 -10 -5 -10
-7 0 -12 8 -4 12 -28 12 -70 0 -36 4 -64 10 -64 6 0 10 28 10 65 0 51 3 65 15
65 8 0 15 5 15 10 0 6 -7 10 -15 10 -22 0 -18 21 5 27 11 3 20 9 20 14 0 10
-27 11 -47 2z"/>
<path d="M13280 4360 c0 -60 4 -100 10 -100 6 0 10 13 10 29 0 36 20 51 34 27
22 -37 44 -61 51 -54 3 3 -5 25 -20 48 l-27 42 28 29 c19 20 23 29 13 29 -9 0
-26 -11 -39 -25 -13 -14 -27 -25 -32 -25 -4 0 -8 23 -8 50 0 28 -4 50 -10 50
-6 0 -10 -40 -10 -100z"/>
<path d="M13870 4423 c0 -29 -3 -34 -12 -25 -33 33 -78 -4 -78 -65 0 -51 24
-74 73 -71 l37 3 0 98 c0 58 -4 97 -10 97 -5 0 -10 -17 -10 -37z m1 -60 c20
-52 -20 -103 -56 -73 -18 15 -20 71 -3 88 20 20 48 14 59 -15z"/>
<path d="M14680 4445 c0 -8 5 -15 10 -15 6 0 10 7 10 15 0 8 -4 15 -10 15 -5
0 -10 -7 -10 -15z"/>
<path d="M15320 4398 c0 -35 5 -70 10 -78 7 -11 10 -5 10 25 0 22 3 57 6 78 5
30 4 37 -10 37 -13 0 -16 -11 -16 -62z"/>
<path d="M15470 4360 c0 -60 4 -100 10 -100 6 0 10 40 10 100 0 60 -4 100 -10
100 -6 0 -10 -40 -10 -100z"/>
<path d="M15553 4453 c-7 -2 -13 -13 -13 -23 0 -10 -6 -21 -12 -24 -10 -5 -10
-7 0 -12 8 -4 12 -28 12 -70 0 -36 4 -64 10 -64 6 0 10 28 10 65 0 51 3 65 15
65 8 0 15 5 15 10 0 6 -7 10 -15 10 -22 0 -18 21 5 27 11 3 20 9 20 14 0 10
-27 11 -47 2z"/>
<path d="M16190 4360 c0 -60 4 -100 10 -100 6 0 10 40 10 100 0 60 -4 100 -10
100 -6 0 -10 -40 -10 -100z"/>
<path d="M16250 4445 c0 -8 5 -15 10 -15 6 0 10 7 10 15 0 8 -4 15 -10 15 -5
0 -10 -7 -10 -15z"/>
<path d="M16310 4360 c0 -60 4 -100 10 -100 6 0 10 16 10 35 0 22 5 35 13 35
7 0 21 -16 31 -35 11 -19 26 -35 34 -35 15 0 11 8 -34 75 -12 17 -11 22 13 47
16 17 21 28 13 28 -7 0 -26 -15 -41 -32 l-28 -33 -1 58 c0 31 -4 57 -10 57 -6
0 -10 -40 -10 -100z"/>
<path d="M16860 4360 c0 -110 17 -139 22 -38 3 53 6 63 22 66 28 6 46 -25 46
-80 0 -29 4 -48 11 -48 17 0 7 129 -12 141 -7 5 -26 7 -41 5 -25 -5 -28 -3
-28 24 0 17 -4 30 -10 30 -6 0 -10 -40 -10 -100z"/>
<path d="M1900 4431 c0 -11 -6 -22 -12 -24 -10 -4 -10 -7 -1 -14 6 -5 13 -35
15 -68 3 -56 5 -60 28 -63 23 -2 24 -1 8 11 -22 17 -26 112 -5 121 10 5 10 7
0 12 -7 3 -13 14 -13 25 0 10 -4 19 -10 19 -5 0 -10 -9 -10 -19z"/>
<path d="M7356 4440 c-12 -18 -9 -137 5 -161 5 -11 16 -19 24 -19 19 0 19 8 0
26 -9 9 -15 34 -15 60 0 32 4 44 15 44 8 0 15 5 15 10 0 6 -6 10 -14 10 -8 0
-16 10 -18 23 -2 18 -5 19 -12 7z"/>
<path d="M7950 4431 c0 -11 -6 -22 -12 -24 -10 -4 -10 -7 -1 -14 6 -5 13 -35
15 -68 3 -56 5 -60 28 -63 23 -2 24 -1 8 11 -22 17 -26 112 -5 121 10 5 10 7
0 12 -7 3 -13 14 -13 25 0 10 -4 19 -10 19 -5 0 -10 -9 -10 -19z"/>
<path d="M9476 4440 c-12 -18 -9 -137 5 -161 5 -11 16 -19 24 -19 19 0 19 8 0
26 -9 9 -15 34 -15 60 0 32 4 44 15 44 8 0 15 5 15 10 0 6 -6 10 -14 10 -8 0
-16 10 -18 23 -2 18 -5 19 -12 7z"/>
<path d="M10426 4440 c-12 -18 -9 -137 5 -161 5 -11 16 -19 24 -19 19 0 19 8
0 26 -9 9 -15 34 -15 60 0 32 4 44 15 44 8 0 15 5 15 10 0 6 -6 10 -14 10 -8
0 -16 10 -18 23 -2 18 -5 19 -12 7z"/>
<path d="M17160 4431 c0 -11 -6 -22 -12 -25 -10 -5 -10 -7 0 -12 7 -4 12 -27
12 -65 0 -45 4 -61 15 -66 9 -3 19 -2 23 2 4 4 1 10 -5 12 -8 3 -13 24 -13 58
0 33 5 56 13 59 10 5 10 7 0 12 -7 3 -13 14 -13 25 0 10 -4 19 -10 19 -5 0
-10 -9 -10 -19z"/>
<path d="M1020 4335 c0 -43 4 -75 10 -75 6 0 10 24 10 54 0 56 17 83 45 72 11
-4 15 -21 15 -66 0 -33 4 -60 10 -60 6 0 10 21 10 46 0 54 14 84 39 84 24 0
31 -19 31 -81 0 -27 5 -49 10 -49 13 0 13 106 0 131 -11 20 -54 26 -65 9 -3
-6 -15 -5 -31 2 -19 9 -30 9 -45 0 -11 -7 -19 -8 -19 -2 0 5 -4 10 -10 10 -6
0 -10 -32 -10 -75z"/>
<path d="M1325 4390 c-23 -26 -11 -39 14 -16 25 22 56 17 56 -9 0 -15 -8 -21
-34 -25 -37 -6 -58 -28 -48 -54 9 -24 36 -31 68 -19 16 7 29 7 29 2 0 -5 5 -9
11 -9 17 0 7 129 -12 141 -24 15 -65 10 -84 -11z m75 -80 c0 -23 -45 -39 -63
-21 -13 13 -2 27 28 34 34 8 35 8 35 -13z"/>
<path d="M1546 4394 c-27 -26 -18 -44 30 -64 48 -21 54 -43 14 -48 -14 -3 -29
3 -37 14 -15 21 -26 14 -17 -10 8 -22 50 -31 80 -17 19 8 25 17 22 38 -2 21
-11 29 -46 41 -24 8 -41 19 -39 26 5 16 48 20 57 6 4 -7 13 -11 20 -8 20 6
-17 38 -45 38 -13 0 -31 -7 -39 -16z"/>
<path d="M1685 4390 c-39 -43 -12 -130 39 -130 42 0 66 27 66 75 0 34 -5 47
-22 59 -31 22 -61 20 -83 -4z m74 -14 c17 -20 10 -77 -11 -90 -26 -16 -52 4
-56 43 -4 36 12 61 38 61 10 0 23 -6 29 -14z"/>
<path d="M1970 4341 c11 -39 20 -73 20 -76 0 -14 30 -2 31 13 0 9 6 35 13 57
l13 40 13 -58 c7 -32 18 -56 23 -54 9 3 25 41 51 125 4 13 3 22 -3 22 -5 0
-17 -26 -27 -57 l-17 -58 -13 40 c-7 22 -13 48 -13 58 -1 9 -7 17 -14 17 -9 0
-19 -22 -26 -56 -7 -30 -15 -53 -18 -51 -2 3 -10 27 -17 53 -6 26 -17 49 -24
52 -7 2 -4 -21 8 -67z"/>
<path d="M2178 4399 c-10 -5 -18 -17 -18 -24 0 -20 16 -19 24 0 7 20 55 19 63
-1 7 -19 -12 -34 -44 -34 -26 0 -55 -27 -51 -48 5 -27 34 -38 68 -25 16 6 30
7 30 2 0 -5 6 -9 13 -9 15 0 11 118 -5 138 -12 14 -56 15 -80 1z m72 -83 c0
-21 -26 -38 -52 -34 -31 4 -29 30 2 39 39 11 50 10 50 -5z"/>
<path d="M2310 4333 c0 -42 4 -73 10 -73 6 0 10 22 10 49 0 62 7 81 31 81 10
0 19 4 19 10 0 5 -16 9 -35 8 l-35 -1 0 -74z"/>
<path d="M2410 4390 c-42 -42 -13 -130 43 -130 27 0 65 25 54 36 -4 4 -13 2
-19 -4 -18 -18 -56 -14 -68 7 -15 30 -14 31 46 31 53 0 55 1 48 23 -17 56 -67
74 -104 37z m78 -22 c3 -15 -4 -18 -38 -18 -38 0 -40 1 -30 21 14 25 63 23 68
-3z"/>
<path d="M2781 4384 c-24 -30 -26 -55 -10 -87 23 -43 62 -49 100 -17 18 14 20
19 9 20 -9 0 -21 -5 -27 -11 -17 -17 -60 -3 -66 21 -5 18 0 20 49 20 56 0 62
6 43 43 -24 45 -67 50 -98 11z m79 -14 c10 -18 8 -20 -30 -20 -27 0 -40 4 -40
13 0 33 53 38 70 7z"/>
<path d="M2911 4398 c1 -26 44 -132 55 -135 7 -2 23 28 37 72 15 45 21 75 15
73 -7 -3 -19 -25 -27 -50 -9 -26 -19 -50 -23 -53 -3 -4 -14 18 -24 49 -16 51
-35 75 -33 44z"/>
<path d="M3061 4384 c-24 -30 -26 -55 -10 -87 23 -43 62 -49 100 -17 18 14 20
19 9 20 -9 0 -21 -5 -27 -11 -17 -17 -60 -3 -66 21 -5 18 0 20 49 20 56 0 62
6 43 43 -24 45 -67 50 -98 11z m79 -14 c10 -18 8 -20 -30 -20 -27 0 -40 4 -40
13 0 33 53 38 70 7z"/>
<path d="M3270 4390 c-43 -43 -13 -130 44 -130 29 0 66 42 66 75 0 33 -37 75
-66 75 -13 0 -33 -9 -44 -20z m70 -9 c8 -6 14 -25 14 -46 0 -59 -59 -76 -78
-23 -19 53 21 95 64 69z"/>
<path d="M3410 4310 c0 -60 4 -100 10 -100 6 0 10 14 10 30 0 28 2 30 25 24
49 -12 87 52 64 108 -13 32 -52 47 -74 28 -10 -9 -15 -9 -15 -1 0 6 -4 11 -10
11 -6 0 -10 -40 -10 -100z m90 54 c20 -52 -19 -104 -55 -74 -18 15 -20 71 -3
88 20 20 48 14 58 -14z"/>
<path d="M3572 4394 c-17 -12 -22 -25 -22 -59 0 -47 24 -75 65 -75 26 0 63 26
52 36 -4 4 -13 2 -19 -4 -25 -25 -78 -8 -78 25 0 9 16 13 50 13 46 0 50 2 50
24 0 26 -33 56 -60 56 -9 0 -26 -7 -38 -16z m66 -16 c21 -21 13 -28 -28 -28
-22 0 -40 4 -40 8 0 14 23 32 40 32 9 0 21 -5 28 -12z"/>
<path d="M3700 4335 c0 -43 4 -75 10 -75 6 0 10 21 10 46 0 51 14 84 35 84 8
0 15 5 15 10 0 14 -23 13 -38 -2 -9 -9 -12 -9 -12 0 0 7 -4 12 -10 12 -6 0
-10 -32 -10 -75z"/>
<path d="M4100 4390 c-41 -41 -14 -130 40 -130 21 0 60 33 60 50 0 17 -14 11
-28 -10 -30 -48 -86 1 -66 58 12 33 39 40 65 16 25 -22 33 -14 13 14 -19 28
-58 28 -84 2z"/>
<path d="M4236 4394 c-9 -8 -16 -20 -16 -25 0 -15 17 -10 24 7 9 24 61 15 61
-11 0 -15 -8 -21 -30 -23 -39 -5 -55 -19 -55 -48 0 -28 43 -43 71 -26 12 8 20
8 24 2 3 -6 10 -10 14 -10 11 0 1 123 -11 138 -14 17 -63 15 -82 -4z m74 -84
c0 -23 -45 -39 -63 -21 -13 13 -2 27 28 34 34 8 35 8 35 -13z"/>
<path d="M4370 4335 c0 -87 18 -102 22 -19 3 60 20 83 52 71 12 -5 16 -20 16
-67 0 -33 4 -60 10 -60 14 0 13 123 -2 138 -7 7 -21 12 -33 12 -12 0 -26 -5
-33 -12 -9 -9 -12 -9 -12 0 0 7 -4 12 -10 12 -6 0 -10 -32 -10 -75z"/>
<path d="M4751 4384 c-24 -30 -26 -55 -10 -87 23 -43 62 -49 100 -17 18 14 20
19 9 20 -9 0 -21 -5 -27 -11 -17 -17 -60 -3 -66 21 -5 18 0 20 49 20 56 0 62
6 43 43 -24 45 -67 50 -98 11z m79 -14 c10 -18 8 -20 -30 -20 -27 0 -40 4 -40
13 0 33 53 38 70 7z"/>
<path d="M4950 4310 c0 -60 4 -100 10 -100 6 0 10 14 10 30 0 28 2 30 25 24
49 -12 87 52 64 108 -13 32 -52 47 -74 28 -10 -9 -15 -9 -15 -1 0 6 -4 11 -10
11 -6 0 -10 -40 -10 -100z m90 54 c20 -52 -19 -104 -55 -74 -18 15 -20 71 -3
88 20 20 48 14 58 -14z"/>
<path d="M5160 4407 c0 -2 11 -37 25 -78 l26 -74 -22 -18 c-12 -10 -19 -21
-15 -24 15 -16 40 17 68 87 39 103 41 110 29 110 -5 0 -18 -25 -27 -55 -10
-30 -21 -55 -24 -55 -3 0 -14 25 -24 55 -9 30 -21 55 -27 55 -5 0 -9 -1 -9 -3z"/>
<path d="M5322 4394 c-19 -13 -23 -23 -20 -62 2 -39 8 -49 31 -62 24 -13 30
-13 55 0 22 13 28 23 30 62 3 39 -1 49 -20 62 -12 9 -29 16 -38 16 -9 0 -26
-7 -38 -16z m67 -18 c17 -20 10 -77 -11 -90 -26 -16 -52 4 -56 43 -4 36 12 61
38 61 10 0 23 -6 29 -14z"/>
<path d="M5450 4351 c0 -79 32 -111 80 -81 9 6 17 5 22 -3 4 -7 8 23 8 66 0
45 -4 77 -10 77 -6 0 -10 -26 -10 -59 0 -51 -3 -61 -20 -66 -34 -11 -50 12
-50 71 0 30 -4 54 -10 54 -6 0 -10 -26 -10 -59z"/>
<path d="M5820 4351 c0 -79 32 -111 80 -81 9 6 17 5 22 -3 4 -7 8 23 8 66 0
45 -4 77 -10 77 -6 0 -10 -26 -10 -59 0 -51 -3 -61 -20 -66 -34 -11 -50 12
-50 71 0 30 -4 54 -10 54 -6 0 -10 -26 -10 -59z"/>
<path d="M5970 4335 c0 -43 4 -75 10 -75 6 0 10 32 10 75 0 43 -4 75 -10 75
-6 0 -10 -32 -10 -75z"/>
<path d="M6326 4394 c-9 -8 -16 -20 -16 -25 0 -15 17 -10 24 7 9 24 61 15 61
-11 0 -15 -8 -21 -30 -23 -39 -5 -55 -19 -55 -48 0 -28 43 -43 71 -26 12 8 20
8 24 2 3 -6 10 -10 14 -10 11 0 1 123 -11 138 -14 17 -63 15 -82 -4z m74 -84
c0 -23 -45 -39 -63 -21 -13 13 -2 27 28 34 34 8 35 8 35 -13z"/>
<path d="M6540 4308 c0 -59 4 -98 10 -98 6 0 10 13 10 29 0 24 3 28 20 24 11
-3 31 2 45 11 20 13 25 25 25 60 0 54 -21 76 -73 73 l-37 -2 0 -97z m78 70 c7
-7 12 -26 12 -43 0 -53 -48 -76 -70 -34 -27 49 22 113 58 77z"/>
<path d="M6680 4335 c0 -43 4 -75 10 -75 6 0 10 21 10 46 0 51 14 84 35 84 8
0 15 5 15 10 0 14 -23 13 -38 -2 -9 -9 -12 -9 -12 0 0 7 -4 12 -10 12 -6 0
-10 -32 -10 -75z"/>
<path d="M6785 4390 c-39 -43 -12 -130 39 -130 42 0 66 27 66 75 0 34 -5 47
-22 59 -31 22 -61 20 -83 -4z m74 -14 c17 -20 10 -77 -11 -90 -26 -16 -52 4
-56 43 -4 36 12 61 38 61 10 0 23 -6 29 -14z"/>
<path d="M7070 4347 c0 -67 10 -87 45 -87 12 0 26 5 33 12 9 9 12 9 12 0 0 -7
5 -12 10 -12 6 0 10 32 10 75 0 87 -18 102 -22 19 -3 -60 -20 -83 -52 -71 -12
5 -16 20 -16 67 0 33 -4 60 -10 60 -6 0 -10 -28 -10 -63z"/>
<path d="M7230 4390 c-41 -41 -14 -130 40 -130 21 0 60 33 60 50 0 17 -14 11
-28 -10 -30 -48 -86 1 -66 58 12 33 39 40 65 16 25 -22 33 -14 13 14 -19 28
-58 28 -84 2z"/>
<path d="M7660 4390 c-42 -42 -13 -130 43 -130 27 0 65 25 54 36 -4 4 -13 2
-19 -4 -18 -18 -56 -14 -68 7 -15 30 -14 31 46 31 53 0 55 1 48 23 -17 56 -67
74 -104 37z m78 -22 c3 -15 -4 -18 -38 -18 -38 0 -40 1 -30 21 14 25 63 23 68
-3z"/>
<path d="M7805 4390 c-23 -26 -11 -39 14 -16 25 22 56 17 56 -9 0 -15 -8 -21
-34 -25 -37 -6 -58 -28 -48 -54 9 -24 36 -31 68 -19 16 7 29 7 29 2 0 -5 5 -9
11 -9 17 0 7 129 -12 141 -24 15 -65 10 -84 -11z m75 -80 c0 -23 -45 -39 -63
-21 -13 13 -2 27 28 34 34 8 35 8 35 -13z"/>
<path d="M8020 4346 c0 -77 15 -96 61 -79 16 6 29 7 29 2 0 -5 5 -9 10 -9 6 0
10 32 10 75 0 43 -4 75 -10 75 -5 0 -10 -22 -10 -48 0 -55 -18 -86 -46 -80
-16 3 -19 13 -22 66 -4 82 -22 80 -22 -2z"/>
<path d="M8170 4333 c0 -89 18 -98 22 -10 3 56 5 62 26 65 36 5 25 22 -13 20
l-35 -1 0 -74z"/>
<path d="M8272 4394 c-17 -12 -22 -25 -22 -59 0 -47 24 -75 65 -75 26 0 63 26
52 36 -4 4 -13 2 -19 -4 -25 -25 -78 -8 -78 25 0 9 16 13 50 13 46 0 50 2 50
24 0 26 -33 56 -60 56 -9 0 -26 -7 -38 -16z m66 -16 c21 -21 13 -28 -28 -28
-22 0 -40 4 -40 8 0 14 23 32 40 32 9 0 21 -5 28 -12z"/>
<path d="M8490 4390 c-43 -43 -13 -130 44 -130 29 0 66 42 66 75 0 33 -37 75
-66 75 -13 0 -33 -9 -44 -20z m70 -9 c8 -6 14 -25 14 -46 0 -59 -59 -76 -78
-23 -19 53 21 95 64 69z"/>
<path d="M8630 4333 c0 -89 18 -98 22 -10 3 56 5 62 26 65 36 5 25 22 -13 20
l-35 -1 0 -74z"/>
<path d="M8793 4335 c11 -42 26 -75 33 -75 6 0 18 26 26 58 l15 57 12 -45 c7
-25 14 -51 16 -57 9 -28 23 -10 40 49 9 34 19 68 22 75 3 7 1 13 -5 13 -5 0
-15 -21 -22 -47 -19 -69 -25 -70 -39 -8 -15 67 -30 67 -47 1 -7 -26 -15 -50
-17 -53 -3 -2 -11 21 -18 51 -7 31 -18 56 -24 56 -8 0 -6 -22 8 -75z"/>
<path d="M9002 4394 c-17 -12 -22 -25 -22 -59 0 -48 24 -75 67 -75 22 0 58 28
48 38 -3 3 -11 0 -17 -6 -25 -25 -78 -8 -78 25 0 9 16 13 50 13 43 0 50 3 50
20 0 25 -34 60 -58 60 -10 0 -28 -7 -40 -16z m66 -16 c21 -21 13 -28 -28 -28
-22 0 -40 4 -40 8 0 14 23 32 40 32 9 0 21 -5 28 -12z"/>
<path d="M9286 4394 c-27 -26 -18 -44 30 -64 48 -21 54 -43 14 -48 -14 -3 -29
3 -37 14 -15 21 -26 14 -17 -10 8 -22 50 -31 80 -17 19 8 25 17 22 38 -2 21
-11 29 -46 41 -24 8 -41 19 -39 26 5 16 48 20 57 6 4 -7 13 -11 20 -8 20 6
-17 38 -45 38 -13 0 -31 -7 -39 -16z"/>
<path d="M9410 4335 c0 -43 4 -75 10 -75 6 0 10 32 10 75 0 43 -4 75 -10 75
-6 0 -10 -32 -10 -75z"/>
<path d="M9562 4394 c-17 -12 -22 -25 -22 -59 0 -47 24 -75 65 -75 26 0 63 26
52 36 -4 4 -13 2 -19 -4 -25 -25 -78 -8 -78 25 0 9 16 13 50 13 46 0 50 2 50
24 0 26 -33 56 -60 56 -9 0 -26 -7 -38 -16z m66 -16 c21 -21 13 -28 -28 -28
-22 0 -40 4 -40 8 0 14 23 32 40 32 9 0 21 -5 28 -12z"/>
<path d="M9932 4394 c-19 -13 -23 -23 -20 -62 2 -39 8 -49 31 -62 24 -13 30
-13 55 0 22 13 28 23 30 62 3 39 -1 49 -20 62 -12 9 -29 16 -38 16 -9 0 -26
-7 -38 -16z m67 -18 c17 -20 10 -77 -11 -90 -26 -16 -52 4 -56 43 -4 36 12 61
38 61 10 0 23 -6 29 -14z"/>
<path d="M10082 4394 c-19 -13 -23 -23 -20 -62 2 -39 8 -49 31 -62 24 -13 30
-13 55 0 22 13 28 23 30 62 3 39 -1 49 -20 62 -12 9 -29 16 -38 16 -9 0 -26
-7 -38 -16z m67 -18 c17 -20 10 -77 -11 -90 -26 -16 -52 4 -56 43 -4 36 12 61
38 61 10 0 23 -6 29 -14z"/>
<path d="M10640 4335 c0 -43 4 -75 10 -75 6 0 10 21 10 46 0 51 14 84 35 84 8
0 15 5 15 10 0 14 -23 13 -38 -2 -9 -9 -12 -9 -12 0 0 7 -4 12 -10 12 -6 0
-10 -32 -10 -75z"/>
<path d="M10745 4390 c-39 -43 -12 -130 39 -130 42 0 66 27 66 75 0 34 -5 47
-22 59 -31 22 -61 20 -83 -4z m74 -14 c17 -20 10 -77 -11 -90 -26 -16 -52 4
-56 43 -4 36 12 61 38 61 10 0 23 -6 29 -14z"/>
<path d="M10880 4347 c0 -67 10 -87 45 -87 12 0 26 5 33 12 9 9 12 9 12 0 0
-7 5 -12 10 -12 6 0 10 32 10 75 0 87 -18 102 -22 19 -3 -60 -20 -83 -52 -71
-12 5 -16 20 -16 67 0 33 -4 60 -10 60 -6 0 -10 -28 -10 -63z"/>
<path d="M11040 4390 c-47 -47 -10 -138 51 -126 31 6 37 -2 17 -22 -17 -17
-38 -15 -60 5 -24 22 -32 13 -12 -15 19 -28 58 -28 84 -2 17 17 20 33 20 100
0 47 -4 80 -10 80 -5 0 -10 -5 -10 -12 0 -9 -3 -9 -12 0 -18 18 -45 15 -68 -8z
m68 -12 c17 -17 15 -73 -3 -88 -22 -18 -48 -8 -59 22 -19 53 27 101 62 66z"/>
<path d="M11406 4394 c-9 -8 -16 -19 -16 -24 0 -16 30 -38 60 -45 22 -5 30
-12 28 -23 -5 -24 -36 -27 -59 -6 -25 23 -37 10 -14 -16 32 -36 95 -19 95 26
0 18 -7 27 -27 34 -40 14 -56 24 -55 35 2 15 41 18 58 4 8 -6 18 -9 22 -5 10
11 -28 36 -54 36 -13 0 -30 -7 -38 -16z"/>
<path d="M11545 4390 c-39 -43 -12 -130 39 -130 42 0 66 27 66 75 0 34 -5 47
-22 59 -31 22 -61 20 -83 -4z m74 -14 c17 -20 10 -77 -11 -90 -26 -16 -52 4
-56 43 -4 36 12 61 38 61 10 0 23 -6 29 -14z"/>
<path d="M11680 4335 c0 -43 4 -75 10 -75 6 0 10 24 10 54 0 56 17 83 45 72
11 -4 15 -21 15 -66 0 -33 4 -60 10 -60 6 0 10 21 10 46 0 54 14 84 39 84 24
0 31 -19 31 -81 0 -27 5 -49 10 -49 13 0 13 106 0 131 -11 20 -54 26 -65 9 -3
-6 -15 -5 -31 2 -19 9 -30 9 -45 0 -11 -7 -19 -8 -19 -2 0 5 -4 10 -10 10 -6
0 -10 -32 -10 -75z"/>
<path d="M11922 4394 c-17 -12 -22 -25 -22 -59 0 -48 24 -75 67 -75 22 0 58
28 48 38 -3 3 -11 0 -17 -6 -25 -25 -78 -8 -78 25 0 9 16 13 50 13 43 0 50 3
50 20 0 25 -34 60 -58 60 -10 0 -28 -7 -40 -16z m66 -16 c21 -21 13 -28 -28
-28 -22 0 -40 4 -40 8 0 14 23 32 40 32 9 0 21 -5 28 -12z"/>
<path d="M12142 4394 c-17 -12 -22 -25 -22 -59 0 -67 52 -96 101 -57 45 37 16
132 -40 132 -9 0 -27 -7 -39 -16z m67 -18 c17 -20 10 -77 -11 -90 -26 -16 -52
4 -56 43 -4 36 12 61 38 61 10 0 23 -6 29 -14z"/>
<path d="M12420 4335 c0 -43 4 -75 10 -75 6 0 10 18 10 39 0 55 15 91 39 91
24 0 31 -19 31 -81 0 -71 19 -60 22 14 3 59 4 62 28 62 24 0 25 -3 28 -62 4
-83 22 -81 22 1 0 77 -15 96 -61 79 -17 -7 -31 -7 -35 -2 -8 13 -48 11 -62 -3
-9 -9 -12 -9 -12 0 0 7 -4 12 -10 12 -6 0 -10 -32 -10 -75z"/>
<path d="M12655 4341 c30 -83 31 -101 5 -108 -22 -6 -28 -23 -7 -23 25 0 37
17 66 98 33 88 36 102 23 102 -5 0 -17 -28 -28 -62 l-20 -62 -18 62 c-11 35
-25 62 -32 62 -10 0 -7 -18 11 -69z"/>
<path d="M12840 4403 c0 -25 38 -137 48 -141 10 -3 32 55 32 86 0 6 5 12 10
12 6 0 10 -6 10 -12 0 -26 21 -88 30 -88 11 0 54 139 46 147 -6 7 -25 -38 -33
-80 -7 -36 -19 -24 -30 32 -11 59 -29 63 -43 9 -19 -74 -22 -75 -37 -15 -9 31
-19 57 -24 57 -5 0 -9 -3 -9 -7z"/>
<path d="M13062 4394 c-19 -13 -23 -23 -20 -62 2 -39 8 -49 31 -62 24 -13 30
-13 55 0 22 13 28 23 30 62 3 39 -1 49 -20 62 -12 9 -29 16 -38 16 -9 0 -26
-7 -38 -16z m67 -18 c17 -20 10 -77 -11 -90 -26 -16 -52 4 -56 43 -4 36 12 61
38 61 10 0 23 -6 29 -14z"/>
<path d="M13190 4335 c0 -43 4 -75 10 -75 6 0 10 21 10 46 0 51 14 84 35 84 8
0 15 5 15 10 0 14 -23 13 -38 -2 -9 -9 -12 -9 -12 0 0 7 -4 12 -10 12 -6 0
-10 -32 -10 -75z"/>
<path d="M13508 4399 c-10 -5 -18 -17 -18 -24 0 -20 16 -19 24 0 7 20 55 19
63 -1 7 -19 -12 -34 -44 -34 -26 0 -55 -27 -51 -48 5 -27 34 -38 68 -25 16 6
30 7 30 2 0 -5 6 -9 13 -9 15 0 11 118 -5 138 -12 14 -56 15 -80 1z m72 -83
c0 -21 -26 -38 -52 -34 -31 4 -29 30 2 39 39 11 50 10 50 -5z"/>
<path d="M13640 4335 c0 -43 4 -75 10 -75 6 0 10 24 10 53 0 55 12 77 41 77
22 0 29 -20 29 -81 0 -27 5 -49 10 -49 17 0 12 116 -6 134 -18 19 -45 21 -62
4 -9 -9 -12 -9 -12 0 0 7 -4 12 -10 12 -6 0 -10 -32 -10 -75z"/>
<path d="M14020 4390 c-42 -42 -13 -130 43 -130 27 0 65 25 54 36 -4 4 -13 2
-19 -4 -18 -18 -56 -14 -68 7 -15 30 -14 31 46 31 53 0 55 1 48 23 -17 56 -67
74 -104 37z m78 -22 c3 -15 -4 -18 -38 -18 -38 0 -40 1 -30 21 14 25 63 23 68
-3z"/>
<path d="M14172 4372 l22 -39 -22 -30 c-24 -34 -27 -43 -13 -43 5 0 18 14 29
31 l19 31 19 -31 c10 -17 24 -31 31 -31 9 0 4 14 -13 40 l-26 39 22 31 c29 40
15 54 -15 16 l-24 -30 -12 27 c-7 15 -18 27 -26 27 -10 0 -8 -10 9 -38z"/>
<path d="M14290 4310 c0 -60 4 -100 10 -100 6 0 10 14 10 31 0 26 3 29 20 24
49 -16 88 34 75 95 -9 39 -47 60 -76 42 -11 -7 -19 -8 -19 -2 0 5 -4 10 -10
10 -6 0 -10 -40 -10 -100z m92 55 c23 -51 -20 -106 -57 -75 -18 15 -20 71 -3
88 20 20 48 14 60 -13z"/>
<path d="M14450 4390 c-42 -42 -13 -130 43 -130 27 0 65 25 54 36 -4 4 -13 2
-19 -4 -18 -18 -56 -14 -68 7 -15 30 -14 31 46 31 53 0 55 1 48 23 -17 56 -67
74 -104 37z m78 -22 c3 -15 -4 -18 -38 -18 -38 0 -40 1 -30 21 14 25 63 23 68
-3z"/>
<path d="M14590 4333 c0 -89 18 -98 22 -10 3 56 5 62 26 65 36 5 25 22 -13 20
l-35 -1 0 -74z"/>
<path d="M14680 4335 c0 -43 4 -75 10 -75 6 0 10 32 10 75 0 43 -4 75 -10 75
-6 0 -10 -32 -10 -75z"/>
<path d="M14752 4394 c-17 -12 -22 -25 -22 -59 0 -47 24 -75 65 -75 26 0 63
26 52 36 -4 4 -13 2 -19 -4 -25 -25 -78 -8 -78 25 0 9 16 13 50 13 46 0 50 2
50 24 0 26 -33 56 -60 56 -9 0 -26 -7 -38 -16z m66 -16 c21 -21 13 -28 -28
-28 -22 0 -40 4 -40 8 0 14 23 32 40 32 9 0 21 -5 28 -12z"/>
<path d="M14880 4335 c0 -43 4 -75 10 -75 6 0 10 22 10 48 0 55 18 86 46 80
16 -3 19 -13 22 -66 4 -82 22 -80 22 2 0 77 -15 96 -61 79 -16 -6 -29 -7 -29
-2 0 5 -4 9 -10 9 -6 0 -10 -32 -10 -75z"/>
<path d="M15047 4392 c-23 -26 -22 -94 1 -115 33 -30 92 -12 92 29 0 21 -17
17 -23 -6 -6 -22 -36 -27 -55 -8 -7 7 -12 26 -12 43 0 17 5 36 12 43 17 17 47
15 54 -3 8 -19 24 -19 24 0 0 34 -67 46 -93 17z"/>
<path d="M15182 4394 c-17 -12 -22 -25 -22 -59 0 -47 24 -75 65 -75 26 0 63
26 52 36 -4 4 -13 2 -19 -4 -25 -25 -78 -8 -78 25 0 9 16 13 50 13 46 0 50 2
50 24 0 26 -33 56 -60 56 -9 0 -26 -7 -38 -16z m66 -16 c21 -21 13 -28 -28
-28 -22 0 -40 4 -40 8 0 14 23 32 40 32 9 0 21 -5 28 -12z"/>
<path d="M15695 4341 c30 -83 31 -101 5 -108 -22 -6 -28 -23 -7 -23 25 0 37
17 66 98 33 88 36 102 23 102 -5 0 -17 -28 -28 -62 l-20 -62 -18 62 c-11 35
-25 62 -32 62 -10 0 -7 -18 11 -69z"/>
<path d="M15830 4390 c-43 -43 -13 -130 44 -130 29 0 66 42 66 75 0 33 -37 75
-66 75 -13 0 -33 -9 -44 -20z m70 -9 c8 -6 14 -25 14 -46 0 -59 -59 -76 -78
-23 -19 53 21 95 64 69z"/>
<path d="M15962 4350 c5 -76 24 -100 68 -83 21 8 30 8 34 -1 2 -6 5 24 5 67 1
92 -17 104 -21 15 -3 -60 -4 -63 -28 -63 -24 0 -25 3 -28 63 -2 48 -6 62 -19
62 -13 0 -15 -10 -11 -60z"/>
<path d="M16250 4335 c0 -43 4 -75 10 -75 6 0 10 32 10 75 0 43 -4 75 -10 75
-6 0 -10 -32 -10 -75z"/>
<path d="M16451 4384 c-24 -30 -26 -55 -10 -87 23 -43 62 -49 100 -17 18 14
20 19 9 20 -9 0 -21 -5 -27 -11 -17 -17 -60 -3 -66 21 -5 18 0 20 49 20 56 0
62 6 43 43 -24 45 -67 50 -98 11z m79 -14 c10 -18 8 -20 -30 -20 -27 0 -40 4
-40 13 0 33 53 38 70 7z"/>
<path d="M16650 4403 c0 -25 38 -137 48 -141 10 -3 32 55 32 86 0 6 5 12 10
12 6 0 10 -6 10 -12 0 -26 21 -88 30 -88 11 0 54 139 46 147 -6 7 -25 -38 -33
-80 -7 -36 -19 -24 -30 32 -11 59 -29 63 -43 9 -19 -74 -22 -75 -37 -15 -9 31
-19 57 -24 57 -5 0 -9 -3 -9 -7z"/>
<path d="M17016 4394 c-9 -8 -16 -20 -16 -25 0 -15 17 -10 24 7 9 24 61 15 61
-11 0 -15 -8 -21 -30 -23 -39 -5 -55 -19 -55 -48 0 -28 43 -43 71 -26 12 8 20
8 24 2 3 -6 10 -10 14 -10 11 0 1 123 -11 138 -14 17 -63 15 -82 -4z m74 -84
c0 -23 -45 -39 -63 -21 -13 13 -2 27 28 34 34 8 35 8 35 -13z"/>
<path d="M17290 4407 c0 -2 11 -37 25 -78 l26 -74 -22 -18 c-12 -10 -19 -21
-15 -24 15 -16 40 17 68 87 39 103 41 110 29 110 -5 0 -18 -25 -27 -55 -10
-30 -21 -55 -24 -55 -3 0 -14 25 -24 55 -9 30 -21 55 -27 55 -5 0 -9 -1 -9 -3z"/>
<path d="M17445 4390 c-39 -43 -12 -130 39 -130 42 0 66 27 66 75 0 34 -5 47
-22 59 -31 22 -61 20 -83 -4z m74 -14 c17 -20 10 -77 -11 -90 -26 -16 -52 4
-56 43 -4 36 12 61 38 61 10 0 23 -6 29 -14z"/>
<path d="M17580 4351 c0 -79 32 -111 80 -81 9 6 17 5 22 -3 4 -7 8 23 8 66 0
45 -4 77 -10 77 -6 0 -10 -26 -10 -59 0 -51 -3 -61 -20 -66 -34 -11 -50 12
-50 71 0 30 -4 54 -10 54 -6 0 -10 -26 -10 -59z"/>
<path d="M17818 4399 c-21 -12 -24 -44 -5 -56 6 -4 26 -12 42 -18 38 -13 39
-39 2 -43 -18 -2 -29 2 -33 12 -8 20 -24 21 -24 1 0 -40 93 -44 105 -4 8 26
-9 47 -48 57 -17 4 -32 13 -35 20 -6 18 28 27 50 13 25 -15 35 -7 18 14 -14
17 -47 19 -72 4z"/>
<path d="M17950 4390 c-42 -42 -13 -130 43 -130 27 0 65 25 54 36 -4 4 -13 2
-19 -4 -18 -18 -56 -14 -68 7 -15 30 -14 31 46 31 53 0 55 1 48 23 -17 56 -67
74 -104 37z m78 -22 c3 -15 -4 -18 -38 -18 -38 0 -40 1 -30 21 14 25 63 23 68
-3z"/>
<path d="M18102 4394 c-17 -12 -22 -25 -22 -59 0 -47 24 -75 65 -75 26 0 63
26 52 36 -4 4 -13 2 -19 -4 -25 -25 -78 -8 -78 25 0 9 16 13 50 13 46 0 50 2
50 24 0 26 -33 56 -60 56 -9 0 -26 -7 -38 -16z m66 -16 c21 -21 13 -28 -28
-28 -22 0 -40 4 -40 8 0 14 23 32 40 32 9 0 21 -5 28 -12z"/>
<path d="M3800 4275 c0 -8 5 -15 10 -15 6 0 10 7 10 15 0 8 -4 15 -10 15 -5 0
-10 -7 -10 -15z"/>
<path d="M7433 4255 c2 -31 4 -33 15 -18 16 23 15 53 -2 53 -10 0 -14 -11 -13
-35z"/>
<path d="M15320 4275 c0 -8 5 -15 10 -15 6 0 10 7 10 15 0 8 -4 15 -10 15 -5
0 -10 -7 -10 -15z"/>
<path d="M6120 3924 c0 -31 -2 -35 -15 -24 -41 34 -92 -22 -80 -87 7 -39 27
-52 78 -50 l37 1 0 98 c0 59 -4 98 -10 98 -5 0 -10 -16 -10 -36z m-12 -46 c17
-17 15 -73 -3 -88 -22 -18 -48 -8 -59 22 -19 53 27 101 62 66z"/>
<path d="M6250 3860 c0 -60 4 -100 10 -100 6 0 10 22 10 48 0 55 18 86 46 80
16 -3 19 -13 22 -66 4 -82 22 -80 22 2 0 74 -13 91 -60 81 -27 -6 -31 -4 -30
12 4 30 1 43 -10 43 -6 0 -10 -40 -10 -100z"/>
<path d="M7510 3945 c0 -8 5 -15 10 -15 6 0 10 7 10 15 0 8 -4 15 -10 15 -5 0
-10 -7 -10 -15z"/>
<path d="M9040 3923 c0 -29 -3 -34 -12 -25 -33 33 -78 -4 -78 -65 0 -50 22
-72 73 -70 l37 1 0 98 c0 59 -4 98 -10 98 -5 0 -10 -17 -10 -37z m-12 -45 c7
-7 12 -29 12 -49 0 -29 -5 -39 -20 -44 -29 -9 -50 12 -50 49 0 32 15 56 35 56
6 0 16 -5 23 -12z"/>
<path d="M9540 3923 c0 -29 -3 -34 -12 -25 -33 33 -78 -4 -78 -65 0 -51 24
-74 73 -71 l37 3 0 98 c0 58 -4 97 -10 97 -5 0 -10 -17 -10 -37z m1 -60 c20
-52 -20 -103 -56 -73 -18 15 -20 71 -3 88 20 20 48 14 59 -15z"/>
<path d="M9840 3923 c0 -29 -3 -34 -12 -25 -33 33 -78 -4 -78 -65 0 -50 22
-72 73 -70 l37 1 0 98 c0 59 -4 98 -10 98 -5 0 -10 -17 -10 -37z m-12 -45 c7
-7 12 -29 12 -49 0 -29 -5 -39 -20 -44 -29 -9 -50 12 -50 49 0 32 15 56 35 56
6 0 16 -5 23 -12z"/>
<path d="M10140 3925 c0 -32 -2 -34 -19 -23 -49 30 -97 -39 -71 -103 12 -29
29 -36 83 -37 l27 0 0 99 c0 59 -4 99 -10 99 -5 0 -10 -16 -10 -35z m-12 -47
c17 -17 15 -73 -3 -88 -22 -18 -48 -8 -59 22 -19 53 27 101 62 66z"/>
<path d="M10494 3930 c1 -27 2 -28 14 -13 16 22 15 43 -2 43 -8 0 -13 -11 -12
-30z"/>
<path d="M10700 3860 c0 -60 4 -100 10 -100 6 0 10 22 10 48 0 55 18 86 46 80
16 -3 19 -13 22 -66 4 -82 22 -80 22 2 0 74 -13 91 -60 81 -28 -6 -30 -5 -30
24 0 17 -4 31 -10 31 -6 0 -10 -40 -10 -100z"/>
<path d="M11210 3945 c0 -8 5 -15 10 -15 6 0 10 7 10 15 0 8 -4 15 -10 15 -5
0 -10 -7 -10 -15z"/>
<path d="M7860 3931 c0 -11 -6 -22 -12 -24 -10 -4 -10 -7 -1 -14 6 -5 13 -35
15 -68 3 -56 5 -60 28 -63 23 -2 24 -1 8 11 -22 17 -26 112 -5 121 10 5 10 7
0 12 -7 3 -13 14 -13 25 0 10 -4 19 -10 19 -5 0 -10 -9 -10 -19z"/>
<path d="M10560 3931 c0 -11 -6 -22 -12 -25 -10 -5 -10 -7 0 -12 7 -4 12 -27
12 -65 0 -45 4 -61 15 -66 9 -3 19 -2 23 2 4 4 1 10 -5 12 -8 3 -13 24 -13 58
0 33 5 56 13 59 10 5 10 7 0 12 -7 3 -13 14 -13 25 0 10 -4 19 -10 19 -5 0
-10 -9 -10 -19z"/>
<path d="M11140 3931 c0 -11 -6 -22 -12 -25 -10 -5 -10 -7 0 -12 7 -4 12 -27
12 -65 0 -45 4 -61 15 -66 9 -3 19 -2 23 2 4 4 1 10 -5 12 -8 3 -13 24 -13 58
0 33 5 56 13 59 10 5 10 7 0 12 -7 3 -13 14 -13 25 0 10 -4 19 -10 19 -5 0
-10 -9 -10 -19z"/>
<path d="M11420 3931 c0 -11 -6 -22 -12 -25 -10 -5 -10 -7 0 -12 7 -4 12 -27
12 -65 0 -45 4 -61 15 -66 9 -3 19 -2 23 2 4 4 1 10 -5 12 -8 3 -13 24 -13 58
0 33 5 56 13 59 10 5 10 7 0 12 -7 3 -13 14 -13 25 0 10 -4 19 -10 19 -5 0
-10 -9 -10 -19z"/>
<path d="M11716 3940 c-12 -18 -9 -137 5 -161 5 -11 16 -19 24 -19 19 0 19 8
0 26 -9 9 -15 34 -15 60 0 32 4 44 15 44 8 0 15 5 15 10 0 6 -6 10 -14 10 -8
0 -16 10 -18 23 -2 18 -5 19 -12 7z"/>
<path d="M12438 3928 c-8 -49 7 -151 24 -162 9 -5 21 -7 25 -2 4 4 0 12 -10
17 -23 13 -25 109 -2 109 8 0 15 5 15 10 0 6 -7 10 -15 10 -8 0 -15 9 -15 20
0 27 -17 25 -22 -2z"/>
<path d="M12800 3931 c0 -11 -6 -22 -12 -25 -10 -5 -10 -7 0 -12 7 -4 12 -27
12 -65 0 -45 4 -61 15 -66 9 -3 19 -2 23 2 4 4 1 10 -5 12 -8 3 -13 24 -13 58
0 33 5 56 13 59 10 5 10 7 0 12 -7 3 -13 14 -13 25 0 10 -4 19 -10 19 -5 0
-10 -9 -10 -19z"/>
<path d="M5745 3890 c-23 -26 -11 -39 14 -16 25 22 56 17 56 -9 0 -15 -8 -21
-34 -25 -37 -6 -58 -28 -48 -54 9 -24 36 -31 68 -19 16 7 29 7 29 2 0 -5 5 -9
11 -9 17 0 7 129 -12 141 -24 15 -65 10 -84 -11z m75 -80 c0 -23 -45 -39 -63
-21 -13 13 -2 27 28 34 34 8 35 8 35 -13z"/>
<path d="M5880 3835 c0 -43 4 -75 10 -75 6 0 10 22 10 48 0 55 18 86 46 80 16
-3 19 -13 22 -66 4 -82 22 -80 22 2 0 77 -15 96 -61 79 -16 -6 -29 -7 -29 -2
0 5 -4 9 -10 9 -6 0 -10 -32 -10 -75z"/>
<path d="M6416 3894 c-9 -8 -16 -20 -16 -25 0 -15 17 -10 24 7 9 24 61 15 61
-11 0 -15 -8 -21 -30 -23 -39 -5 -55 -19 -55 -48 0 -28 43 -43 71 -26 12 8 20
8 24 2 3 -6 10 -10 14 -10 11 0 1 123 -11 138 -14 17 -63 15 -82 -4z m74 -84
c0 -23 -45 -39 -63 -21 -13 13 -2 27 28 34 34 8 35 8 35 -13z"/>
<path d="M6540 3901 c0 -19 48 -135 57 -138 10 -4 67 137 59 145 -10 10 -24
-10 -36 -53 -7 -25 -16 -47 -20 -50 -4 -2 -14 20 -24 50 -9 30 -21 55 -27 55
-5 0 -9 -4 -9 -9z"/>
<path d="M6702 3894 c-17 -12 -22 -25 -22 -59 0 -48 24 -75 67 -75 22 0 58 28
48 38 -3 3 -11 0 -17 -6 -25 -25 -78 -8 -78 25 0 9 16 13 50 13 43 0 50 3 50
20 0 25 -34 60 -58 60 -10 0 -28 -7 -40 -16z m66 -16 c21 -21 13 -28 -28 -28
-22 0 -40 4 -40 8 0 14 23 32 40 32 9 0 21 -5 28 -12z"/>
<path d="M6915 3890 c-23 -26 -11 -39 14 -16 25 22 56 17 56 -9 0 -15 -8 -21
-34 -25 -37 -6 -58 -28 -48 -54 9 -24 36 -31 68 -19 16 7 29 7 29 2 0 -5 5 -9
11 -9 17 0 7 129 -12 141 -24 15 -65 10 -84 -11z m75 -80 c0 -23 -45 -39 -63
-21 -13 13 -2 27 28 34 34 8 35 8 35 -13z"/>
<path d="M7130 3810 c0 -60 4 -100 10 -100 6 0 10 14 10 30 0 28 2 30 25 24
49 -12 87 52 64 108 -13 32 -52 47 -74 28 -10 -9 -15 -9 -15 -1 0 6 -4 11 -10
11 -6 0 -10 -40 -10 -100z m90 54 c20 -52 -19 -104 -55 -74 -18 15 -20 71 -3
88 20 20 48 14 58 -14z"/>
<path d="M7280 3833 c0 -89 18 -98 22 -10 3 56 5 62 26 65 36 5 25 22 -13 20
l-35 -1 0 -74z"/>
<path d="M7382 3894 c-19 -13 -23 -23 -20 -62 2 -39 8 -49 31 -62 24 -13 30
-13 55 0 22 13 28 23 30 62 3 39 -1 49 -20 62 -12 9 -29 16 -38 16 -9 0 -26
-7 -38 -16z m67 -18 c17 -20 10 -77 -11 -90 -26 -16 -52 4 -56 43 -4 36 12 61
38 61 10 0 23 -6 29 -14z"/>
<path d="M7510 3824 c0 -71 -3 -89 -17 -101 -17 -12 -16 -13 7 -11 25 3 25 5
28 101 2 62 -1 97 -8 97 -6 0 -10 -33 -10 -86z"/>
<path d="M7592 3894 c-17 -12 -22 -25 -22 -59 0 -48 24 -75 67 -75 22 0 58 28
48 38 -3 3 -11 0 -17 -6 -25 -25 -78 -8 -78 25 0 9 16 13 50 13 43 0 50 3 50
20 0 25 -34 60 -58 60 -10 0 -28 -7 -40 -16z m66 -16 c21 -21 13 -28 -28 -28
-22 0 -40 4 -40 8 0 14 23 32 40 32 9 0 21 -5 28 -12z"/>
<path d="M7736 3894 c-24 -23 -30 -61 -16 -94 20 -49 76 -52 104 -7 16 25 -2
34 -20 9 -34 -49 -86 -3 -66 57 11 32 37 38 63 15 25 -23 37 -10 14 16 -22 24
-58 26 -79 4z"/>
<path d="M7994 3894 c21 -51 46 -129 46 -142 0 -7 -9 -16 -20 -19 -23 -6 -27
-23 -6 -23 21 0 35 23 67 107 31 84 33 93 21 93 -5 0 -16 -25 -26 -56 -10 -31
-21 -53 -24 -49 -4 3 -14 27 -23 53 -8 25 -21 48 -29 50 -9 3 -11 -1 -6 -14z"/>
<path d="M8152 3894 c-17 -12 -22 -25 -22 -58 0 -49 22 -76 62 -76 58 0 86 93
39 131 -28 23 -50 24 -79 3z m67 -18 c17 -20 10 -77 -11 -90 -26 -16 -52 4
-56 43 -4 36 12 61 38 61 10 0 23 -6 29 -14z"/>
<path d="M8282 3850 c5 -76 24 -100 68 -83 21 8 30 8 34 -1 2 -6 5 24 5 67 1
92 -17 104 -21 15 -3 -60 -4 -63 -28 -63 -24 0 -25 3 -28 63 -2 48 -6 62 -19
62 -13 0 -15 -10 -11 -60z"/>
<path d="M8510 3835 c0 -43 4 -75 10 -75 6 0 10 24 10 53 0 55 12 77 41 77 22
0 29 -20 29 -81 0 -27 5 -49 10 -49 17 0 12 116 -6 134 -18 19 -45 21 -62 4
-9 -9 -12 -9 -12 0 0 7 -4 12 -10 12 -6 0 -10 -32 -10 -75z"/>
<path d="M8672 3894 c-17 -12 -22 -25 -22 -59 0 -47 24 -75 65 -75 26 0 63 26
52 36 -4 4 -13 2 -19 -4 -25 -25 -78 -8 -78 25 0 9 16 13 50 13 46 0 50 2 50
24 0 26 -33 56 -60 56 -9 0 -26 -7 -38 -16z m66 -16 c21 -21 13 -28 -28 -28
-22 0 -40 4 -40 8 0 14 23 32 40 32 9 0 21 -5 28 -12z"/>
<path d="M8822 3894 c-17 -12 -22 -25 -22 -59 0 -48 24 -75 67 -75 22 0 58 28
48 38 -3 3 -11 0 -17 -6 -25 -25 -78 -8 -78 25 0 9 16 13 50 13 43 0 50 3 50
20 0 25 -34 60 -58 60 -10 0 -28 -7 -40 -16z m66 -16 c21 -21 13 -28 -28 -28
-22 0 -40 4 -40 8 0 14 23 32 40 32 9 0 21 -5 28 -12z"/>
<path d="M9192 3894 c-33 -23 -32 -97 3 -120 31 -21 73 -11 84 19 12 31 2 37
-16 10 -29 -43 -73 -23 -73 32 0 17 5 36 12 43 17 17 47 15 54 -3 8 -19 24
-19 24 0 0 15 -29 35 -52 35 -8 0 -24 -7 -36 -16z"/>
<path d="M9320 3890 c-43 -43 -13 -130 44 -130 29 0 66 42 66 75 0 33 -37 75
-66 75 -13 0 -33 -9 -44 -20z m70 -9 c8 -6 14 -25 14 -46 0 -59 -59 -76 -78
-23 -19 53 21 95 64 69z"/>
<path d="M9622 3894 c-17 -12 -22 -25 -22 -59 0 -47 24 -75 65 -75 26 0 63 26
52 36 -4 4 -13 2 -19 -4 -25 -25 -78 -8 -78 25 0 9 16 13 50 13 46 0 50 2 50
24 0 26 -33 56 -60 56 -9 0 -26 -7 -38 -16z m66 -16 c21 -21 13 -28 -28 -28
-22 0 -40 4 -40 8 0 14 23 32 40 32 9 0 21 -5 28 -12z"/>
<path d="M10210 3890 c-43 -43 -13 -130 44 -130 29 0 66 42 66 75 0 33 -37 75
-66 75 -13 0 -33 -9 -44 -20z m70 -9 c8 -6 14 -25 14 -46 0 -59 -59 -76 -78
-23 -19 53 21 95 64 69z"/>
<path d="M10350 3833 c0 -89 18 -97 22 -11 3 53 6 63 22 66 28 6 46 -25 46
-80 0 -29 4 -48 11 -48 13 0 8 124 -5 137 -4 4 -28 8 -52 8 l-44 0 0 -72z"/>
<path d="M10861 3884 c-24 -30 -26 -55 -10 -87 23 -43 62 -49 100 -17 18 14
20 19 9 20 -9 0 -21 -5 -27 -11 -17 -17 -60 -3 -66 21 -5 18 0 20 49 20 56 0
62 6 43 43 -24 45 -67 50 -98 11z m79 -14 c10 -18 8 -20 -30 -20 -27 0 -40 4
-40 13 0 33 53 38 70 7z"/>
<path d="M11006 3894 c-27 -26 -18 -44 30 -64 48 -21 54 -43 14 -48 -14 -3
-29 3 -37 14 -15 21 -26 14 -17 -10 8 -22 50 -31 80 -17 19 8 25 17 22 38 -2
21 -11 29 -46 41 -24 8 -41 19 -39 26 5 16 48 20 57 6 4 -7 13 -11 20 -8 20 6
-17 38 -45 38 -13 0 -31 -7 -39 -16z"/>
<path d="M11209 3850 c-1 -33 -2 -65 -3 -72 -1 -6 5 -13 12 -15 9 -4 12 15 12
71 0 90 -19 104 -21 16z"/>
<path d="M11275 3890 c-23 -26 -11 -39 14 -16 25 22 56 17 56 -9 0 -15 -8 -21
-34 -25 -37 -6 -58 -28 -48 -54 9 -24 36 -31 68 -19 16 7 29 7 29 2 0 -5 5 -9
11 -9 17 0 7 129 -12 141 -24 15 -65 10 -84 -11z m75 -80 c0 -23 -45 -39 -63
-21 -13 13 -2 27 28 34 34 8 35 8 35 -13z"/>
<path d="M11500 3890 c-42 -42 -13 -130 43 -130 27 0 65 25 54 36 -4 4 -13 2
-19 -4 -18 -18 -56 -14 -68 7 -15 30 -14 31 46 31 53 0 55 1 48 23 -17 56 -67
74 -104 37z m78 -22 c3 -15 -4 -18 -38 -18 -38 0 -40 1 -30 21 14 25 63 23 68
-3z"/>
<path d="M11802 3894 c-19 -13 -23 -23 -20 -62 2 -39 8 -49 31 -62 24 -13 30
-13 55 0 22 13 28 23 30 62 3 39 -1 49 -20 62 -12 9 -29 16 -38 16 -9 0 -26
-7 -38 -16z m67 -18 c17 -20 10 -77 -11 -90 -26 -16 -52 4 -56 43 -4 36 12 61
38 61 10 0 23 -6 29 -14z"/>
<path d="M12020 3890 c-41 -41 -14 -130 40 -130 21 0 60 33 60 50 0 17 -14 11
-28 -10 -30 -48 -86 1 -66 58 12 33 39 40 65 16 25 -22 33 -14 13 14 -19 28
-58 28 -84 2z"/>
<path d="M12150 3890 c-43 -43 -13 -130 45 -130 36 0 65 33 65 75 0 42 -29 75
-65 75 -14 0 -34 -9 -45 -20z m82 -25 c18 -41 0 -80 -37 -80 -23 0 -32 6 -39
27 -14 39 6 78 39 78 18 0 29 -8 37 -25z"/>
<path d="M12290 3835 c0 -43 4 -75 10 -75 6 0 10 24 10 53 0 55 12 77 41 77
22 0 29 -20 29 -81 0 -27 5 -49 10 -49 17 0 12 116 -6 134 -18 19 -45 21 -62
4 -9 -9 -12 -9 -12 0 0 7 -4 12 -10 12 -6 0 -10 -32 -10 -75z"/>
<path d="M12528 3899 c-10 -5 -18 -17 -18 -24 0 -20 16 -19 24 0 7 20 55 19
63 -1 7 -19 -12 -34 -44 -34 -26 0 -55 -27 -51 -48 5 -27 34 -38 68 -25 16 6
30 7 30 2 0 -5 6 -9 13 -9 15 0 11 118 -5 138 -12 14 -56 15 -80 1z m72 -83
c0 -21 -26 -38 -52 -34 -31 4 -29 30 2 39 39 11 50 10 50 -5z"/>
<path d="M12676 3894 c-24 -23 -30 -61 -16 -94 20 -49 76 -52 104 -7 16 25 -2
34 -20 9 -34 -49 -86 -3 -66 57 11 32 37 38 63 15 25 -23 37 -10 14 16 -22 24
-58 26 -79 4z"/>
<path d="M12940 3835 c0 -43 4 -75 10 -75 6 0 10 24 10 54 0 56 17 83 45 72
11 -4 15 -21 15 -66 0 -33 4 -60 10 -60 6 0 10 21 10 46 0 55 14 84 40 84 24
0 34 -33 28 -90 -2 -28 0 -40 9 -40 16 0 18 102 3 131 -11 20 -54 26 -65 9 -3
-6 -15 -5 -31 2 -19 9 -30 9 -45 0 -11 -7 -19 -8 -19 -2 0 5 -4 10 -10 10 -6
0 -10 -32 -10 -75z"/>
<path d="M13182 3894 c-17 -12 -22 -25 -22 -59 0 -48 24 -75 67 -75 22 0 58
28 48 38 -3 3 -11 0 -17 -6 -25 -25 -78 -8 -78 25 0 9 16 13 50 13 43 0 50 3
50 20 0 25 -34 60 -58 60 -10 0 -28 -7 -40 -16z m66 -16 c21 -21 13 -28 -28
-28 -22 0 -40 4 -40 8 0 14 23 32 40 32 9 0 21 -5 28 -12z"/>
<path d="M9913 3755 c1 -21 4 -30 9 -22 11 17 10 57 -1 57 -5 0 -9 -16 -8 -35z"/>
<path d="M13320 3775 c0 -8 5 -15 10 -15 6 0 10 7 10 15 0 8 -4 15 -10 15 -5
0 -10 -7 -10 -15z"/>
<path d="M11941 3657 c-23 -19 -54 -53 -68 -76 l-25 -43 75 -77 c78 -80 136
-159 182 -250 79 -157 135 -364 135 -498 l0 -68 72 129 71 129 -12 75 c-23
151 -127 401 -224 541 -44 63 -143 171 -157 171 -4 0 -26 -15 -49 -33z"/>
<path d="M6198 3163 c-42 -62 -238 -409 -238 -419 0 -7 113 -258 120 -267 4
-5 19 12 34 36 l26 45 -21 47 -20 46 26 45 c29 49 36 49 55 4 7 -16 15 -30 19
-30 4 0 47 66 98 148 l91 147 -66 125 c-36 69 -68 129 -72 133 -4 5 -28 -22
-52 -60z"/>
<path d="M6794 3153 c-9 -27 -28 -75 -41 -107 -12 -33 -23 -62 -23 -65 0 -3
31 41 70 99 69 104 73 119 28 120 -11 0 -22 -17 -34 -47z"/>
<path d="M11431 2829 c-56 -95 -61 -107 -55 -144 4 -22 10 -76 13 -120 l6 -79
34 -7 c18 -4 36 -11 40 -16 8 -12 163 -64 170 -58 8 9 -18 236 -35 300 -17 65
-63 166 -93 204 l-18 24 -62 -104z"/>
<path d="M7750 2525 l0 -165 100 0 c93 0 100 1 100 20 0 18 -7 20 -80 20 l-80
0 0 145 c0 138 -1 145 -20 145 -19 0 -20 -7 -20 -165z"/>
<path d="M8010 2525 l0 -165 120 0 c113 0 120 1 120 20 0 19 -7 20 -100 20
l-100 0 0 55 0 55 90 0 c83 0 90 1 90 20 0 19 -7 20 -90 20 l-90 0 0 50 0 50
95 0 c88 0 95 1 95 20 0 19 -7 20 -115 20 l-115 0 0 -165z"/>
<path d="M8290 2670 c0 -18 7 -20 55 -20 l55 0 0 -145 c0 -138 1 -145 20 -145
19 0 20 7 20 145 l0 145 55 0 c48 0 55 2 55 20 0 19 -7 20 -130 20 -123 0
-130 -1 -130 -20z"/>
<path d="M8580 2668 c0 -48 13 -98 25 -98 7 0 15 20 19 46 9 70 8 74 -19 74
-19 0 -25 -5 -25 -22z"/>
<path d="M8734 2676 c-38 -17 -59 -62 -45 -99 12 -30 45 -49 116 -66 56 -14
85 -35 85 -62 0 -50 -112 -68 -155 -24 -14 13 -25 29 -25 35 0 5 -9 10 -20 10
-24 0 -25 -11 -4 -51 39 -76 199 -78 233 -3 28 62 -5 107 -94 130 -67 17 -105
38 -105 58 0 45 102 64 140 26 11 -11 20 -24 20 -30 0 -5 9 -10 20 -10 23 0
25 9 9 44 -23 49 -110 70 -175 42z"/>
<path d="M9212 2683 c-13 -3 -38 -20 -57 -38 -74 -75 -51 -233 40 -271 73 -30
153 -6 187 57 17 32 17 34 1 40 -11 5 -22 1 -28 -9 -28 -45 -55 -62 -95 -62
-78 0 -127 84 -101 170 15 52 53 80 106 80 36 0 48 -5 68 -30 17 -19 31 -28
41 -24 20 8 20 14 0 43 -29 41 -91 58 -162 44z"/>
<path d="M9535 2676 c-102 -44 -125 -200 -40 -275 77 -67 195 -48 240 39 24
46 19 140 -8 181 -41 62 -123 85 -192 55z m141 -60 c31 -31 34 -40 34 -91 0
-51 -3 -60 -34 -91 -29 -29 -41 -34 -79 -34 -81 0 -124 66 -106 163 10 55 49
87 108 87 36 0 49 -6 77 -34z"/>
<path d="M9820 2525 c0 -140 2 -165 15 -165 13 0 15 21 15 125 0 69 3 125 8
125 4 0 44 -57 90 -125 59 -91 88 -125 102 -125 19 0 20 7 20 165 0 157 -1
165 -20 165 -18 0 -20 -8 -22 -127 l-3 -126 -84 126 c-117 177 -121 175 -121
-38z"/>
<path d="M10150 2525 c0 -157 1 -165 20 -165 18 0 20 8 22 127 l3 126 84 -126
c117 -177 121 -175 121 38 0 140 -2 165 -15 165 -13 0 -15 -21 -15 -125 0 -69
-3 -125 -7 -125 -5 0 -45 57 -91 125 -59 91 -88 125 -102 125 -19 0 -20 -7
-20 -165z"/>
<path d="M10480 2525 l0 -165 120 0 c113 0 120 1 120 20 0 19 -7 20 -100 20
l-100 0 0 55 0 55 90 0 c83 0 90 1 90 20 0 19 -7 20 -90 20 l-90 0 0 50 0 50
100 0 c93 0 100 1 100 20 0 19 -7 20 -120 20 l-120 0 0 -165z"/>
<path d="M10861 2672 c-54 -27 -75 -63 -79 -135 -5 -102 41 -164 130 -174 61
-7 108 17 137 67 12 22 18 40 12 40 -5 0 -16 3 -25 6 -11 4 -16 1 -16 -10 0
-30 -46 -66 -84 -66 -50 0 -83 18 -101 55 -31 66 -10 161 41 184 47 21 93 14
124 -19 18 -19 34 -28 44 -24 20 8 20 9 -1 41 -33 51 -119 68 -182 35z"/>
<path d="M11100 2670 c0 -18 7 -20 56 -20 l56 0 -4 -145 -5 -145 24 0 23 0 0
145 0 145 55 0 c48 0 55 2 55 20 0 19 -7 20 -130 20 -123 0 -130 -1 -130 -20z"/>
<path d="M6992 2645 c-22 -34 -23 -35 -91 -35 -62 0 -70 -2 -85 -25 -26 -40
-20 -45 48 -45 63 0 65 1 87 36 l22 36 59 -5 c55 -5 59 -4 78 23 31 43 26 50
-37 50 -55 0 -59 -2 -81 -35z"/>
<path d="M6909 2508 c-27 -37 -16 -48 51 -48 40 0 48 4 64 31 10 17 16 32 14
33 -1 2 -26 6 -55 9 -50 6 -53 5 -74 -25z"/>
<path d="M5443 2103 c203 -2 531 -2 730 0 199 1 34 2 -368 2 -401 0 -564 -1
-362 -2z"/>
<path d="M7158 2103 c255 -2 669 -2 920 0 251 1 43 2 -463 2 -506 0 -712 -1
-457 -2z"/>
<path d="M9112 2103 c223 -2 592 -2 820 0 227 1 44 2 -407 2 -451 0 -637 -1
-413 -2z"/>
<path d="M10978 2103 c248 -2 656 -2 905 0 248 1 45 2 -453 2 -498 0 -701 -1
-452 -2z"/>
<path d="M12492 2087 c-21 -22 -22 -32 -22 -205 l0 -182 -40 0 -40 0 -3 178
c-2 118 -3 93 -3 -78 0 -140 1 -225 3 -187 l4 67 39 0 40 0 0 -73 c0 -64 3
-76 23 -95 l23 -22 745 0 746 0 21 23 c21 23 22 30 22 288 0 265 0 266 -23
287 l-23 22 -745 0 -746 0 -21 -23z m1530 -4 c17 -15 18 -37 18 -281 0 -233
-2 -268 -17 -284 -15 -17 -52 -18 -761 -18 -680 0 -747 1 -764 17 -17 15 -18
37 -18 281 0 233 2 268 17 284 15 17 52 18 761 18 680 0 747 -1 764 -17z"/>
<path d="M12755 1930 c-58 -24 -91 -108 -65 -170 21 -50 90 -93 90 -56 0 8 -8
17 -19 21 -22 7 -59 45 -44 45 6 0 16 -7 23 -15 14 -17 40 -20 40 -5 0 6 -12
15 -26 21 -25 9 -26 12 -21 61 7 56 12 67 27 52 6 -6 31 -8 63 -3 28 3 53 5
55 4 1 -1 5 -25 9 -53 5 -48 4 -52 -21 -63 -20 -10 -26 -19 -26 -46 0 -37 13
-42 49 -17 27 19 51 71 51 111 0 38 -33 89 -69 108 -32 16 -84 19 -116 5z"/>
<path d="M13075 1899 c-34 -19 -45 -41 -45 -85 0 -56 7 -72 41 -89 34 -18 69
-19 104 -3 20 9 25 18 25 50 0 38 0 38 -40 38 -22 0 -40 -4 -40 -10 0 -5 14
-10 30 -10 23 0 30 -4 30 -20 0 -22 -28 -40 -64 -40 -31 0 -66 43 -66 80 0 38
35 80 68 80 14 0 36 -9 48 -21 24 -23 40 -12 21 15 -16 21 -85 31 -112 15z"/>
<path d="M13240 1895 c0 -8 5 -15 10 -15 6 0 10 7 10 15 0 8 -4 15 -10 15 -5
0 -10 -7 -10 -15z"/>
<path d="M13380 1810 c0 -60 4 -100 10 -100 6 0 10 23 10 50 l0 50 50 0 50 0
0 -50 c0 -38 4 -50 15 -50 12 0 15 18 15 100 0 82 -3 100 -15 100 -11 0 -15
-11 -15 -40 l0 -40 -50 0 -50 0 0 40 c0 22 -4 40 -10 40 -6 0 -10 -40 -10
-100z"/>
<path d="M13710 1811 l0 -99 46 2 c54 2 74 22 74 76 0 45 -28 75 -65 68 -22
-5 -25 -2 -25 23 0 19 -5 29 -15 29 -12 0 -15 -18 -15 -99z m92 4 c17 -38 0
-80 -32 -80 -18 0 -27 8 -34 27 -13 36 6 78 34 78 12 0 25 -10 32 -25z"/>
<path d="M13300 1881 c0 -11 -6 -22 -12 -24 -10 -4 -10 -7 -1 -14 6 -5 13 -35
15 -68 3 -53 5 -60 26 -63 25 -4 30 13 7 22 -11 4 -15 20 -15 56 0 38 4 50 15
50 8 0 15 5 15 10 0 6 -7 10 -15 10 -8 0 -15 9 -15 20 0 11 -4 20 -10 20 -5 0
-10 -9 -10 -19z"/>
<path d="M13240 1785 c0 -43 4 -75 10 -75 6 0 10 32 10 75 0 43 -4 75 -10 75
-6 0 -10 -32 -10 -75z"/>
<path d="M13560 1801 c0 -80 28 -109 81 -81 13 7 19 7 19 0 0 -5 5 -10 10 -10
6 0 10 32 10 75 0 60 -3 75 -15 75 -12 0 -15 -13 -15 -59 0 -51 -3 -61 -20
-66 -32 -10 -40 3 -40 66 0 46 -3 59 -15 59 -12 0 -15 -13 -15 -59z"/>
<path d="M5034 1800 c0 -146 2 -205 3 -132 2 72 2 192 0 265 -1 72 -3 13 -3
-133z"/>
<path d="M6574 1800 c0 -146 2 -232 3 -192 l4 72 34 0 34 0 4 -72 c1 -40 3 46
3 192 0 172 -2 201 -3 83 l-3 -183 -35 0 -35 0 -3 183 c-1 118 -3 89 -3 -83z"/>
<path d="M8574 1800 c0 -146 2 -232 3 -192 l4 72 39 0 39 0 4 -72 c1 -40 3 46
3 192 0 172 -2 201 -3 83 l-3 -183 -40 0 -40 0 -3 183 c-1 118 -3 89 -3 -83z"/>
<path d="M10384 1800 c0 -146 2 -232 3 -192 l4 72 39 0 39 0 4 -67 c2 -38 3
47 3 187 0 171 -1 196 -3 78 l-3 -178 -40 0 -40 0 -3 183 c-1 118 -3 89 -3
-83z"/>
<path d="M6933 1921 c-78 -49 -83 -165 -11 -215 37 -26 48 -20 48 24 0 29 -4
40 -15 40 -8 0 -15 9 -15 20 0 11 7 20 15 20 9 0 15 9 15 24 0 33 25 56 61 56
34 0 41 -29 9 -37 -26 -7 -27 -43 -1 -43 14 0 18 -5 14 -20 -3 -11 -12 -20
-19 -20 -10 0 -14 -13 -14 -40 0 -51 19 -53 66 -6 30 30 34 40 34 85 0 44 -5
56 -33 87 -42 46 -104 56 -154 25z"/>
<path d="M8877 1924 c-4 -4 -7 -56 -7 -116 l0 -108 115 0 116 0 -3 113 -3 112
-106 3 c-58 1 -108 -1 -112 -4z m60 -40 c8 -21 -13 -42 -28 -27 -13 13 -5 43
11 43 6 0 13 -7 17 -16z m3 -104 c0 -53 -2 -60 -20 -60 -18 0 -20 7 -20 60 0
53 2 60 20 60 18 0 20 -7 20 -60z m128 -3 c3 -52 1 -58 -15 -55 -13 2 -19 14
-21 46 -2 28 -8 42 -17 42 -9 0 -15 -14 -17 -42 -2 -31 -8 -44 -20 -46 -16 -3
-18 5 -18 58 l0 61 53 -3 52 -3 3 -58z"/>
<path d="M10755 1920 c-11 -4 -31 -20 -45 -35 -22 -24 -25 -35 -25 -103 l0
-77 70 -2 c90 -3 128 17 146 77 11 35 10 46 -4 75 -28 58 -91 87 -142 65z
m103 -35 c16 -14 33 -36 36 -50 17 -67 -62 -142 -124 -118 -17 6 -38 9 -48 6
-20 -5 -20 -4 -24 91 -1 32 4 44 30 68 42 36 89 38 130 3z"/>
<path d="M10740 1840 c0 -30 54 -82 82 -78 12 2 23 9 26 17 3 10 -2 12 -20 8
-31 -8 -63 14 -63 44 0 12 -6 24 -12 26 -8 3 -13 -4 -13 -17z"/>
<path d="M5398 1909 c-10 -5 -18 -21 -18 -34 0 -31 -14 -31 -73 -1 l-47 23 2
-41 c2 -46 17 -81 44 -101 18 -13 17 -14 -9 -20 -36 -9 -34 -21 4 -29 76 -15
161 44 175 121 4 21 9 43 13 48 13 22 9 36 -9 30 -10 -3 -21 -1 -25 5 -8 13
-35 13 -57 -1z"/>
<path d="M5590 1900 c0 -5 14 -10 30 -10 l30 0 0 -90 c0 -53 4 -90 10 -90 6 0
10 37 10 90 l0 90 35 0 c19 0 35 5 35 10 0 6 -32 10 -75 10 -43 0 -75 -4 -75
-10z"/>
<path d="M5940 1895 c0 -8 5 -15 10 -15 6 0 10 7 10 15 0 8 -4 15 -10 15 -5 0
-10 -7 -10 -15z"/>
<path d="M7230 1810 c0 -60 4 -100 10 -100 6 0 10 20 10 45 l0 45 45 0 c25 0
45 5 45 10 0 6 -20 10 -45 10 -45 0 -45 0 -45 35 l0 35 50 0 c28 0 50 5 50 10
0 6 -27 10 -60 10 l-60 0 0 -100z"/>
<path d="M7822 1810 c-1 -58 2 -100 6 -93 5 8 13 9 22 3 38 -24 80 11 80 65 0
22 -8 43 -20 55 -22 22 -37 25 -60 10 -12 -8 -16 -2 -21 28 -4 22 -7 -5 -7
-68z m77 16 c17 -20 10 -77 -11 -90 -39 -24 -74 36 -48 84 12 23 42 26 59 6z"/>
<path d="M8260 1810 c0 -60 4 -100 10 -100 6 0 10 15 10 34 0 50 16 52 42 6
13 -22 29 -40 36 -40 7 0 0 19 -18 47 l-29 48 26 27 c37 39 16 35 -24 -4 l-33
-32 0 57 c0 31 -4 57 -10 57 -6 0 -10 -40 -10 -100z"/>
<path d="M9200 1810 l0 -100 55 0 c30 0 55 5 55 10 0 6 -20 10 -45 10 l-45 0
0 90 c0 53 -4 90 -10 90 -6 0 -10 -40 -10 -100z"/>
<path d="M9351 1894 c0 -11 3 -14 6 -6 3 7 2 16 -1 19 -3 4 -6 -2 -5 -13z"/>
<path d="M9550 1810 c0 -60 4 -100 10 -100 6 0 10 16 10 35 0 23 5 35 14 35 8
0 23 -16 35 -35 32 -54 44 -41 14 14 l-28 49 24 26 c35 37 13 32 -26 -6 l-33
-32 0 57 c0 31 -4 57 -10 57 -6 0 -10 -40 -10 -100z"/>
<path d="M9920 1875 c0 -33 -2 -35 -20 -25 -63 34 -106 -79 -49 -127 8 -6 31
-11 52 -10 l37 1 0 98 c0 59 -4 98 -10 98 -5 0 -10 -16 -10 -35z m-12 -47 c17
-17 15 -73 -3 -88 -22 -18 -48 -8 -59 22 -19 53 27 101 62 66z"/>
<path d="M9990 1810 c0 -60 4 -100 10 -100 6 0 10 40 10 100 0 60 -4 100 -10
100 -6 0 -10 -40 -10 -100z"/>
<path d="M11017 1813 c14 -54 27 -100 29 -103 9 -8 23 24 40 92 9 38 20 70 24
73 4 2 17 -34 30 -80 12 -47 26 -85 31 -85 4 0 13 19 19 43 6 23 18 65 26 94
16 60 17 63 6 63 -5 0 -17 -36 -27 -80 -10 -44 -21 -80 -25 -80 -4 0 -15 36
-25 80 -11 48 -23 80 -31 80 -12 0 -36 -67 -51 -140 -8 -41 -17 -28 -32 45
-17 82 -21 95 -31 95 -4 0 3 -44 17 -97z"/>
<path d="M11263 1810 c0 -78 2 -91 6 -50 8 67 15 80 46 80 27 0 32 -12 38 -90
2 -25 4 -14 3 24 -1 54 -5 71 -18 80 -13 8 -23 8 -38 -2 -28 -17 -28 -16 -33
26 -2 20 -4 -10 -4 -68z"/>
<path d="M6011 1883 c0 -12 -7 -24 -13 -27 -10 -5 -10 -7 0 -12 7 -4 12 -27
12 -65 0 -45 4 -61 15 -66 23 -8 33 7 12 18 -23 13 -25 109 -2 109 8 0 15 5
15 10 0 6 -6 10 -14 10 -8 0 -17 10 -19 23 -4 22 -4 22 -6 0z"/>
<path d="M6080 1881 c0 -11 -6 -22 -12 -25 -10 -5 -10 -7 0 -12 7 -4 12 -27
12 -64 0 -51 3 -60 21 -65 25 -8 39 2 15 11 -20 8 -23 109 -3 118 10 5 10 7 0
12 -7 3 -13 14 -13 25 0 10 -4 19 -10 19 -5 0 -10 -9 -10 -19z"/>
<path d="M11560 1881 c0 -11 -6 -22 -12 -25 -10 -5 -10 -7 0 -12 7 -4 12 -27
12 -65 0 -45 4 -61 15 -66 9 -3 19 -2 23 2 4 4 1 10 -5 12 -8 3 -13 24 -13 58
0 33 5 56 13 59 10 5 10 7 0 12 -7 3 -13 14 -13 25 0 10 -4 19 -10 19 -5 0
-10 -9 -10 -19z"/>
<path d="M5754 1785 c11 -41 26 -75 32 -75 6 0 16 25 23 56 7 30 15 53 18 51
2 -3 10 -26 16 -52 7 -25 17 -46 22 -46 6 0 20 31 32 70 12 39 18 71 13 71 -4
0 -13 -21 -20 -47 -19 -70 -27 -72 -41 -9 -7 31 -17 55 -23 53 -5 -2 -16 -25
-22 -51 -16 -64 -21 -66 -34 -15 -16 63 -18 69 -28 69 -5 0 0 -34 12 -75z"/>
<path d="M5940 1785 c0 -43 4 -75 10 -75 6 0 10 32 10 75 0 43 -4 75 -10 75
-6 0 -10 -32 -10 -75z"/>
<path d="M6165 1835 c-14 -13 -25 -36 -25 -50 0 -30 41 -75 68 -75 23 0 59 26
49 36 -4 4 -13 2 -19 -4 -18 -18 -56 -14 -68 7 -15 30 -14 31 40 31 46 0 50 2
50 23 0 27 -28 57 -54 57 -9 0 -28 -11 -41 -25z m75 -15 c10 -19 8 -20 -35
-20 -43 0 -45 1 -35 20 6 12 21 20 35 20 14 0 29 -8 35 -20z"/>
<path d="M6300 1783 c0 -89 18 -97 22 -10 3 56 5 62 26 65 36 5 25 21 -13 19
l-35 -2 0 -72z"/>
<path d="M7399 1841 c-13 -11 -21 -23 -16 -27 4 -4 13 0 20 10 18 24 62 18 62
-9 0 -13 -9 -21 -31 -25 -42 -9 -54 -18 -54 -39 0 -33 27 -46 63 -33 21 8 33
9 35 2 2 -5 7 -10 11 -10 11 0 0 123 -11 138 -15 18 -52 15 -79 -7z m69 -83
c-2 -18 -11 -24 -35 -26 -27 -3 -33 0 -33 17 0 18 13 25 58 30 8 0 12 -7 10
-21z"/>
<path d="M7550 1840 c-40 -40 -14 -130 38 -130 23 0 56 34 50 52 -3 8 -9 5
-17 -10 -23 -43 -71 -21 -71 33 0 17 5 36 12 43 17 17 47 15 54 -3 7 -16 24
-21 24 -6 0 16 -31 41 -51 41 -10 0 -28 -9 -39 -20z"/>
<path d="M7680 1840 c-42 -42 -13 -130 43 -130 27 0 65 25 54 36 -4 4 -13 2
-19 -4 -25 -25 -78 -8 -78 25 0 9 16 13 50 13 43 0 50 3 50 20 0 26 -34 60
-60 60 -11 0 -29 -9 -40 -20z m64 -6 c33 -13 17 -34 -24 -34 -41 0 -49 7 -28
28 13 13 28 15 52 6z"/>
<path d="M7982 1844 c-17 -12 -22 -25 -22 -59 0 -34 5 -47 22 -59 30 -21 54
-20 78 4 40 40 14 130 -38 130 -10 0 -28 -7 -40 -16z m66 -16 c7 -7 12 -26 12
-44 0 -58 -51 -73 -79 -23 -13 24 -13 29 2 53 19 28 45 34 65 14z"/>
<path d="M8125 1835 c-14 -13 -25 -36 -25 -50 0 -31 41 -75 69 -75 24 0 61 45
61 75 0 30 -37 75 -61 75 -11 0 -31 -11 -44 -25z m77 -20 c18 -41 0 -80 -37
-80 -23 0 -32 6 -39 27 -14 39 6 78 39 78 18 0 29 -8 37 -25z"/>
<path d="M9353 1785 c0 -44 2 -61 4 -37 2 23 2 59 0 80 -2 20 -4 1 -4 -43z"/>
<path d="M9400 1785 c0 -87 18 -102 22 -19 3 60 20 83 52 71 12 -5 16 -20 16
-67 0 -33 4 -60 10 -60 6 0 10 28 10 65 0 55 -3 66 -21 76 -16 8 -28 8 -45 0
-15 -6 -24 -7 -24 -1 0 6 -4 10 -10 10 -6 0 -10 -32 -10 -75z"/>
<path d="M9700 1840 c-29 -29 -27 -94 2 -114 12 -9 30 -16 39 -16 19 0 70 39
52 40 -6 0 -15 -4 -18 -10 -9 -14 -48 -13 -63 2 -26 26 -13 38 38 38 43 0 50
3 50 20 0 26 -34 60 -60 60 -11 0 -29 -9 -40 -20z m68 -12 c21 -21 13 -28 -28
-28 -22 0 -40 4 -40 8 0 14 23 32 40 32 9 0 21 -5 28 -12z"/>
<path d="M10062 1785 c1 -75 1 -76 7 -25 7 64 15 80 41 80 26 0 34 -16 41 -80
l6 -55 2 66 c1 80 -13 99 -59 82 -21 -8 -30 -8 -34 1 -2 6 -4 -25 -4 -69z"/>
<path d="M11419 1839 c-11 -11 -18 -23 -15 -27 4 -3 12 2 19 12 18 24 62 18
62 -9 0 -13 -9 -21 -31 -25 -42 -9 -54 -18 -54 -39 0 -33 27 -46 63 -33 21 8
33 9 35 2 10 -29 17 -3 14 52 -4 65 -17 88 -54 88 -10 0 -27 -9 -39 -21z m69
-81 c-2 -18 -11 -24 -35 -26 -27 -3 -33 0 -33 17 0 18 13 25 58 30 8 0 12 -7
10 -21z"/>
<path d="M11636 1844 c-27 -26 -18 -44 30 -64 26 -12 44 -25 42 -33 -7 -19
-48 -20 -69 -1 -23 20 -26 2 -3 -20 21 -21 47 -20 75 3 30 25 18 49 -32 66
-45 15 -52 45 -11 45 17 0 32 -6 35 -12 2 -7 8 -9 13 -5 11 11 -23 37 -47 37
-10 0 -25 -7 -33 -16z"/>
<path d="M11788 1853 c-17 -4 -32 -32 -23 -41 3 -3 11 2 18 12 18 24 62 18 62
-9 0 -14 -9 -21 -34 -26 -18 -4 -40 -13 -47 -21 -32 -31 21 -72 64 -49 13 7
22 7 30 -1 9 -9 12 3 12 49 0 82 -20 103 -82 86z m62 -87 c0 -20 -26 -38 -51
-34 -31 4 -35 26 -7 37 34 14 58 13 58 -3z"/>
<path d="M11910 1760 c0 -60 4 -100 10 -100 6 0 10 16 10 35 0 32 2 34 19 23
25 -15 70 13 72 45 4 76 -40 124 -79 85 -9 -9 -12 -9 -12 0 0 7 -4 12 -10 12
-6 0 -10 -40 -10 -100z m92 55 c18 -41 0 -80 -37 -80 -28 0 -30 3 -33 38 -2
21 2 45 9 53 18 22 48 17 61 -11z"/>
<path d="M12062 1760 c1 -58 3 -90 5 -72 4 31 6 33 33 27 39 -9 70 22 70 70 0
55 -48 93 -78 63 -10 -10 -15 -10 -22 2 -6 10 -9 -21 -8 -90z m82 64 c11 -28
6 -71 -9 -84 -37 -31 -80 24 -57 75 13 29 56 35 66 9z"/>
<path d="M5443 1493 c203 -2 531 -2 730 0 199 1 34 2 -368 2 -401 0 -564 -1
-362 -2z"/>
<path d="M7158 1493 c255 -2 669 -2 920 0 251 1 43 2 -463 2 -506 0 -712 -1
-457 -2z"/>
<path d="M9112 1493 c223 -2 592 -2 820 0 227 1 44 2 -407 2 -451 0 -637 -1
-413 -2z"/>
<path d="M10978 1493 c248 -2 656 -2 905 0 248 1 45 2 -453 2 -498 0 -701 -1
-452 -2z"/>
<path d="M19113 714 l-22 -24 -9546 0 -9545 0 0 -275 0 -275 9545 0 9546 0 24
-25 25 -24 0 324 c0 179 -1 325 -2 324 -2 -1 -13 -12 -25 -25z"/>
</g>
</svg>
